<svg width="153" height="25" viewBox="0 0 153 25" fill="none" xmlns="http://www.w3.org/2000/svg">
<path d="M0.53125 1.65625C1.19792 1.82292 1.83333 1.94792 2.4375 2.03125C3.04167 2.11458 3.57292 2.17708 4.03125 2.21875C4.57292 2.28125 5.07292 2.30208 5.53125 2.28125C6.11458 2.28125 6.84375 2.22917 7.71875 2.125C8.61458 2.02083 9.53125 1.92708 10.4688 1.84375C11.4062 1.73958 12.3021 1.67708 13.1562 1.65625C14.0312 1.61458 14.7396 1.66667 15.2812 1.8125C15.8229 1.9375 16.375 2.13542 16.9375 2.40625C17.5208 2.65625 18.0521 2.97917 18.5312 3.375C19.0104 3.75 19.4062 4.19792 19.7188 4.71875C20.0312 5.21875 20.2083 5.79167 20.25 6.4375C20.2292 7.25 20.0417 8.01042 19.6875 8.71875C19.3958 9.32292 18.9062 9.94792 18.2188 10.5938C17.5312 11.2188 16.5417 11.6979 15.25 12.0312C15.8958 12.1146 16.4479 12.2604 16.9062 12.4688C17.3854 12.6562 17.7917 12.8854 18.125 13.1562C18.4792 13.4062 18.7604 13.6875 18.9688 14C19.1979 14.3125 19.375 14.625 19.5 14.9375C19.8125 15.6667 19.9583 16.4792 19.9375 17.375C19.8125 18.5417 19.5729 19.4688 19.2188 20.1562C18.8854 20.8438 18.5 21.375 18.0625 21.75C17.625 22.125 17.1771 22.3854 16.7188 22.5312C16.2604 22.6771 15.8438 22.7917 15.4688 22.875C15.0938 22.9583 14.6354 23 14.0938 23C13.5521 23 12.9688 22.9896 12.3438 22.9688C11.7396 22.9271 11.1146 22.8958 10.4688 22.875C9.82292 22.8333 9.20833 22.8333 8.625 22.875C8.14583 22.9167 7.5625 22.9583 6.875 23C6.29167 23.0417 5.5625 23.0938 4.6875 23.1562C3.8125 23.1979 2.79167 23.25 1.625 23.3125C1.85417 23.1458 2.04167 22.9583 2.1875 22.75C2.35417 22.5208 2.48958 22.3229 2.59375 22.1562C2.69792 21.9479 2.79167 21.75 2.875 21.5625C2.9375 21.3958 2.98958 20.9375 3.03125 20.1875C3.07292 19.4375 3.10417 18.5417 3.125 17.5C3.14583 16.4375 3.15625 15.3021 3.15625 14.0938C3.17708 12.8646 3.16667 11.6875 3.125 10.5625C3.10417 9.41667 3.0625 8.40625 3 7.53125C2.95833 6.63542 2.89583 5.98958 2.8125 5.59375C2.6875 5.15625 2.52083 4.70833 2.3125 4.25C2.14583 3.85417 1.90625 3.42708 1.59375 2.96875C1.30208 2.51042 0.947917 2.07292 0.53125 1.65625ZM7.125 4.84375C7.125 4.92708 7.13542 5.20833 7.15625 5.6875C7.17708 6.10417 7.19792 6.75 7.21875 7.625C7.26042 8.47917 7.3125 9.69792 7.375 11.2812C7.89583 11.5104 8.40625 11.6354 8.90625 11.6562C9.40625 11.6562 9.85417 11.6354 10.25 11.5938C10.7083 11.5312 11.1458 11.4271 11.5625 11.2812C12.125 11.0521 12.5625 10.6771 12.875 10.1562C13.2083 9.63542 13.4271 9.09375 13.5312 8.53125C13.6562 7.94792 13.6875 7.40625 13.625 6.90625C13.5625 6.38542 13.4271 6.01042 13.2188 5.78125C12.8229 5.42708 12.3333 5.13542 11.75 4.90625C11.25 4.71875 10.6146 4.59375 9.84375 4.53125C9.09375 4.44792 8.1875 4.55208 7.125 4.84375ZM6.96875 19.6562C7.73958 20.0521 8.41667 20.3125 9 20.4375C9.58333 20.5625 10.0729 20.625 10.4688 20.625C10.9271 20.625 11.3229 20.5625 11.6562 20.4375C12.0521 20.25 12.4375 20 12.8125 19.6875C13.2083 19.3542 13.5 18.9688 13.6875 18.5312C13.8958 18.0729 13.9792 17.5729 13.9375 17.0312C13.8958 16.4688 13.6562 15.8542 13.2188 15.1875C12.8229 14.7083 12.3438 14.3333 11.7812 14.0625C11.2812 13.8333 10.6458 13.6875 9.875 13.625C9.125 13.5625 8.19792 13.7396 7.09375 14.1562L6.96875 19.6562ZM32.3125 0.4375C33.4375 0.479167 34.5729 0.6875 35.7188 1.0625C36.8854 1.41667 37.9583 2 38.9375 2.8125C39.9167 3.60417 40.75 4.63542 41.4375 5.90625C42.125 7.15625 42.5521 8.6875 42.7188 10.5C42.8646 11.9792 42.6771 13.4479 42.1562 14.9062C41.6562 16.3438 40.9583 17.6667 40.0625 18.875C39.1667 20.0833 38.1354 21.1146 36.9688 21.9688C35.8021 22.8021 34.6354 23.3542 33.4688 23.625C32.7604 23.7917 31.9792 23.8125 31.125 23.6875C30.2917 23.5417 29.4375 23.2812 28.5625 22.9062C27.7083 22.5104 26.8646 22.0104 26.0312 21.4062C25.2188 20.8021 24.4792 20.1146 23.8125 19.3438C23.1458 18.5521 22.5833 17.6979 22.125 16.7812C21.6875 15.8646 21.4167 14.9062 21.3125 13.9062C21.2083 13.0729 21.1979 12.1562 21.2812 11.1562C21.3854 10.1354 21.5833 9.125 21.875 8.125C22.1875 7.10417 22.6146 6.125 23.1562 5.1875C23.7188 4.22917 24.4271 3.39583 25.2812 2.6875C26.1354 1.95833 27.1354 1.39583 28.2812 1C29.4479 0.583333 30.7917 0.395833 32.3125 0.4375ZM26.7188 13.0938C26.4271 15.3229 26.6354 17.1146 27.3438 18.4688C28.0729 19.8229 29.1667 20.6458 30.625 20.9375C31.3333 21.0833 32.0104 20.9375 32.6562 20.5C33.3229 20.0417 33.9271 19.3854 34.4688 18.5312C35.0104 17.6771 35.4792 16.6771 35.875 15.5312C36.2708 14.3854 36.5625 13.1875 36.75 11.9375C36.9375 10.6875 36.9479 9.5625 36.7812 8.5625C36.6354 7.54167 36.375 6.67708 36 5.96875C35.625 5.23958 35.1667 4.67708 34.625 4.28125C34.1042 3.88542 33.5625 3.66667 33 3.625C32.0208 3.5625 31.1667 3.82292 30.4375 4.40625C29.7083 4.96875 29.0938 5.70833 28.5938 6.625C28.0938 7.54167 27.6875 8.57292 27.375 9.71875C27.0833 10.8646 26.8646 11.9896 26.7188 13.0938ZM42.7812 1.1875C44.1771 1.35417 45.3854 1.47917 46.4062 1.5625C47.4271 1.625 48.2708 1.67708 48.9375 1.71875C49.7083 1.76042 50.3542 1.77083 50.875 1.75C51.4167 1.72917 52.1562 1.67708 53.0938 1.59375C53.8854 1.53125 54.9271 1.44792 56.2188 1.34375C57.5104 1.21875 59.125 1.05208 61.0625 0.84375C61.0833 1.32292 61.0938 1.79167 61.0938 2.25C61.1146 2.6875 61.1354 3.07292 61.1562 3.40625C61.1771 3.80208 61.1875 4.16667 61.1875 4.5C61.1875 4.85417 61.1667 5.30208 61.125 5.84375C61.0833 6.30208 61.0104 6.88542 60.9062 7.59375C60.8229 8.28125 60.6875 9.10417 60.5 10.0625C60.2083 8.9375 59.9271 8.03125 59.6562 7.34375C59.3854 6.63542 59.1354 6.07292 58.9062 5.65625C58.6562 5.17708 58.4062 4.8125 58.1562 4.5625C57.8854 4.375 57.5625 4.21875 57.1875 4.09375C56.8542 3.98958 56.4271 3.90625 55.9062 3.84375C55.4062 3.78125 54.8125 3.79167 54.125 3.875C54.0208 6.625 53.9479 8.85417 53.9062 10.5625C53.8646 12.2708 53.8333 13.6042 53.8125 14.5625C53.7917 15.7083 53.7812 16.5312 53.7812 17.0312C53.8021 17.7396 53.9167 18.4375 54.125 19.125C54.2917 19.7083 54.5625 20.3125 54.9375 20.9375C55.3125 21.5625 55.8542 22.1146 56.5625 22.5938H52.75C52.3958 22.5938 51.9583 22.6146 51.4375 22.6562C51 22.6979 50.4375 22.7396 49.75 22.7812C49.0833 22.8229 48.3021 22.8958 47.4062 23C47.7188 22.4583 47.9688 21.9688 48.1562 21.5312C48.3438 21.0938 48.4896 20.7188 48.5938 20.4062C48.7188 20.0312 48.8125 19.6979 48.875 19.4062C48.8958 18.9896 48.9479 18.1458 49.0312 16.875C49.0521 16.3542 49.0729 15.7083 49.0938 14.9375C49.1354 14.1667 49.1771 13.25 49.2188 12.1875C49.2812 11.125 49.3333 9.90625 49.375 8.53125C49.4375 7.13542 49.5 5.5625 49.5625 3.8125C49.1875 3.70833 48.8333 3.71875 48.5 3.84375C48.1667 3.94792 47.875 4.08333 47.625 4.25C47.3333 4.45833 47.0521 4.70833 46.7812 5C46.5104 5.35417 46.2083 5.8125 45.875 6.375C45.5833 6.85417 45.25 7.48958 44.875 8.28125C44.5 9.05208 44.0729 10.0104 43.5938 11.1562C43.4896 9.94792 43.4167 8.95833 43.375 8.1875C43.3333 7.39583 43.3021 6.78125 43.2812 6.34375C43.2604 5.82292 43.25 5.4375 43.25 5.1875C43.25 4.95833 43.2292 4.65625 43.1875 4.28125C43.1458 3.96875 43.0938 3.5625 43.0312 3.0625C42.9688 2.54167 42.8854 1.91667 42.7812 1.1875ZM64.0312 2.84375C65.0729 2.90625 65.9479 2.95833 66.6562 3C67.3854 3.02083 67.9896 3.04167 68.4688 3.0625C69.0104 3.08333 69.4688 3.08333 69.8438 3.0625C70.2188 3.04167 70.7292 2.98958 71.375 2.90625C71.9167 2.84375 72.6354 2.75 73.5312 2.625C74.4479 2.47917 75.5833 2.29167 76.9375 2.0625C76.4583 2.54167 76.0833 2.97917 75.8125 3.375C75.5625 3.75 75.3646 4.07292 75.2188 4.34375C75.0521 4.67708 74.9375 4.95833 74.875 5.1875C74.8333 5.39583 74.875 5.91667 75 6.75C75.125 7.58333 75.3021 8.57292 75.5312 9.71875C75.7604 10.8438 76.0104 12.0521 76.2812 13.3438C76.5521 14.6146 76.8229 15.8125 77.0938 16.9375C77.3646 18.0417 77.6042 18.9896 77.8125 19.7812C78.0417 20.5521 78.2083 21.0104 78.3125 21.1562C78.625 21.5938 78.8229 21.8854 78.9062 22.0312C78.9896 22.1562 79.1354 22.2708 79.3438 22.375C79.4271 22.4167 79.5625 22.4792 79.75 22.5625C79.9167 22.6458 80.1354 22.75 80.4062 22.875C80.6979 23 81.0625 23.1458 81.5 23.3125C80.6875 23.3542 79.9896 23.3854 79.4062 23.4062C78.8229 23.4062 78.3438 23.4167 77.9688 23.4375C77.5312 23.4583 77.1562 23.4792 76.8438 23.5C76.5312 23.5 76.1562 23.5208 75.7188 23.5625C75.3438 23.6042 74.8542 23.6458 74.25 23.6875C73.6667 23.7292 72.9792 23.7708 72.1875 23.8125C72.6042 23.5208 72.9375 23.2604 73.1875 23.0312C73.4583 22.7812 73.6667 22.5729 73.8125 22.4062C73.9792 22.1979 74.0938 22.0104 74.1562 21.8438C74.1979 21.6562 74.2292 21.375 74.25 21C74.2708 20.6667 74.2708 20.2292 74.25 19.6875C74.2292 19.125 74.1771 18.3958 74.0938 17.5L65.875 18.3438C65.6667 18.6979 65.5104 19.0104 65.4062 19.2812C65.3021 19.5312 65.2292 19.75 65.1875 19.9375C65.125 20.1667 65.1042 20.3542 65.125 20.5C65.1667 20.6667 65.2396 20.8646 65.3438 21.0938C65.4479 21.3021 65.5938 21.5521 65.7812 21.8438C65.9896 22.1146 66.2917 22.4375 66.6875 22.8125C66.1667 22.7917 65.6354 22.7812 65.0938 22.7812C64.5521 22.7812 64.0521 22.7917 63.5938 22.8125C63.0521 22.8333 62.5208 22.8542 62 22.875C61.4792 22.8958 60.8854 22.9271 60.2188 22.9688C59.6562 23.0104 59 23.0625 58.25 23.125C57.4792 23.1667 56.6562 23.2292 55.7812 23.3125C56.3229 23.0625 56.7812 22.8125 57.1562 22.5625C57.5312 22.2917 57.8438 22.0417 58.0938 21.8125C58.3854 21.5625 58.6354 21.3229 58.8438 21.0938C58.9896 20.8854 59.2812 20.4062 59.7188 19.6562C60.1562 18.8854 60.6458 17.9792 61.1875 16.9375C61.75 15.8958 62.3333 14.7812 62.9375 13.5938C63.5625 12.4062 64.125 11.2917 64.625 10.25C65.125 9.1875 65.5312 8.27083 65.8438 7.5C66.1562 6.72917 66.3125 6.22917 66.3125 6C66.2708 5.72917 66.1667 5.42708 66 5.09375C65.8542 4.80208 65.625 4.46875 65.3125 4.09375C65.0208 3.71875 64.5938 3.30208 64.0312 2.84375ZM73.7188 15.1875C73.5938 14.4583 73.4792 13.8333 73.375 13.3125C73.2708 12.7708 73.1875 12.3229 73.125 11.9688C73.0417 11.5521 72.9792 11.1875 72.9375 10.875C72.875 10.5833 72.8021 10.2083 72.7188 9.75C72.6354 9.35417 72.5312 8.86458 72.4062 8.28125C72.3021 7.67708 72.1667 6.95833 72 6.125C70.8125 8.5 69.8854 10.3438 69.2188 11.6562C68.5729 12.9479 68.1042 13.8958 67.8125 14.5C67.4583 15.2083 67.2604 15.625 67.2188 15.75L73.7188 15.1875ZM79.7188 1.84375C80.6562 2.01042 81.4271 2.125 82.0312 2.1875C82.6354 2.25 83.125 2.30208 83.5 2.34375C83.9375 2.38542 84.2812 2.39583 84.5312 2.375H85.4688C85.8021 2.375 86.2188 2.375 86.7188 2.375C87.2396 2.35417 87.8854 2.34375 88.6562 2.34375C89.0938 3.36458 89.4896 4.30208 89.8438 5.15625C90.2188 6.01042 90.5312 6.73958 90.7812 7.34375C91.0729 8.07292 91.3438 8.72917 91.5938 9.3125C91.8854 10.0417 92.1979 10.8438 92.5312 11.7188C92.8646 12.5938 93.1667 13.4167 93.4375 14.1875C93.7292 14.9583 93.9688 15.5938 94.1562 16.0938C94.3438 16.5938 94.4375 16.8229 94.4375 16.7812C94.4375 16.7604 94.4479 16.5521 94.4688 16.1562C94.4896 15.7396 94.5104 15.2292 94.5312 14.625C94.5521 14 94.5729 13.3229 94.5938 12.5938C94.6354 11.8438 94.6562 11.125 94.6562 10.4375C94.6771 9.72917 94.6875 9.08333 94.6875 8.5C94.6875 7.91667 94.6667 7.47917 94.625 7.1875C94.5625 6.83333 94.4375 6.42708 94.25 5.96875C94.0833 5.57292 93.8542 5.10417 93.5625 4.5625C93.2708 4 92.8646 3.36458 92.3438 2.65625C93.1979 2.67708 93.8958 2.6875 94.4375 2.6875C94.9792 2.6875 95.4167 2.6875 95.75 2.6875C96.125 2.6875 96.4167 2.67708 96.625 2.65625C96.8958 2.65625 97.2292 2.63542 97.625 2.59375C97.9792 2.55208 98.4167 2.52083 98.9375 2.5C99.4792 2.45833 100.146 2.40625 100.938 2.34375C100.479 2.76042 100.115 3.15625 99.8438 3.53125C99.5729 3.90625 99.3542 4.23958 99.1875 4.53125C99 4.86458 98.875 5.17708 98.8125 5.46875C98.7292 5.84375 98.6562 6.45833 98.5938 7.3125C98.5521 8.14583 98.5 9.08333 98.4375 10.125C98.3958 11.1667 98.3542 12.25 98.3125 13.375C98.2708 14.5 98.2292 15.5312 98.1875 16.4688C98.1875 17.1771 98.1667 17.9375 98.125 18.75C98.0833 19.4375 98.0417 20.2188 98 21.0938C97.9583 21.9479 97.9062 22.8125 97.8438 23.6875L95.0625 23.75C94.25 22.3125 93.5625 21.0833 93 20.0625C92.4583 19.0208 92.0104 18.1667 91.6562 17.5C91.2604 16.7292 90.9271 16.0833 90.6562 15.5625C90.4271 15.0625 90.125 14.4896 89.75 13.8438C89.4375 13.3021 89.0417 12.6354 88.5625 11.8438C88.1042 11.0521 87.5521 10.1458 86.9062 9.125C86.8438 10.5625 86.8125 11.7917 86.8125 12.8125C86.8333 13.8125 86.8646 14.6458 86.9062 15.3125C86.9688 16.0833 87.0417 16.7292 87.125 17.25C87.2292 17.75 87.375 18.3125 87.5625 18.9375C87.7292 19.4792 87.9271 20.1146 88.1562 20.8438C88.4062 21.5729 88.7083 22.3958 89.0625 23.3125C87.8333 23.25 86.9167 23.2188 86.3125 23.2188H85.375C85.0833 23.2188 84.6875 23.25 84.1875 23.3125C83.7708 23.3542 83.1979 23.4167 82.4688 23.5C81.7604 23.5833 80.875 23.6979 79.8125 23.8438C80.3125 23.2396 80.7083 22.6875 81 22.1875C81.3125 21.6667 81.5521 21.2292 81.7188 20.875C81.9271 20.4583 82.0729 20.0938 82.1562 19.7812C82.2188 19.4479 82.2604 18.875 82.2812 18.0625C82.3021 17.2292 82.3021 16.2917 82.2812 15.25C82.2812 14.1875 82.2604 13.0729 82.2188 11.9062C82.1979 10.7396 82.1667 9.65625 82.125 8.65625C82.0833 7.65625 82.0312 6.80208 81.9688 6.09375C81.9271 5.38542 81.8958 4.94792 81.875 4.78125C81.8125 4.51042 81.6875 4.21875 81.5 3.90625C81.3333 3.63542 81.1146 3.33333 80.8438 3C80.5729 2.64583 80.1979 2.26042 79.7188 1.84375ZM100.781 2.46875C101.49 2.55208 102.083 2.61458 102.562 2.65625C103.062 2.67708 103.469 2.70833 103.781 2.75C104.156 2.79167 104.448 2.8125 104.656 2.8125C104.885 2.83333 105.229 2.82292 105.688 2.78125C106.083 2.73958 106.615 2.6875 107.281 2.625C107.969 2.5625 108.844 2.46875 109.906 2.34375C109.427 2.76042 109.042 3.16667 108.75 3.5625C108.479 3.9375 108.271 4.27083 108.125 4.5625C107.938 4.91667 107.823 5.25 107.781 5.5625C107.698 6.0625 107.625 6.75 107.562 7.625C107.521 8.47917 107.479 9.41667 107.438 10.4375C107.396 11.4583 107.375 12.5104 107.375 13.5938C107.375 14.6771 107.385 15.7083 107.406 16.6875C107.448 17.6458 107.51 18.5 107.594 19.25C107.698 20 107.823 20.5417 107.969 20.875C108.177 21.25 108.396 21.625 108.625 22C108.833 22.3125 109.083 22.6354 109.375 22.9688C109.667 23.3021 110 23.5729 110.375 23.7812C109.146 23.7188 108.167 23.6875 107.438 23.6875H106.312C105.979 23.6875 105.552 23.7083 105.031 23.75C104.594 23.7917 104.042 23.8333 103.375 23.875C102.708 23.9167 101.906 23.9792 100.969 24.0625C101.448 23.5417 101.823 23.0417 102.094 22.5625C102.365 22.0833 102.583 21.6667 102.75 21.3125C102.938 20.8958 103.062 20.5 103.125 20.125C103.208 19.5833 103.271 18.9167 103.312 18.125C103.375 17.3125 103.417 16.4479 103.438 15.5312C103.458 14.5938 103.458 13.6458 103.438 12.6875C103.438 11.7083 103.417 10.7708 103.375 9.875C103.333 8.97917 103.271 8.16667 103.188 7.4375C103.125 6.70833 103.042 6.125 102.938 5.6875C102.875 5.41667 102.75 5.11458 102.562 4.78125C102.396 4.48958 102.167 4.15625 101.875 3.78125C101.604 3.38542 101.24 2.94792 100.781 2.46875ZM120 0.90625C120.729 0.90625 121.385 1.03125 121.969 1.28125C122.573 1.51042 123.125 1.77083 123.625 2.0625C124.146 2.35417 124.635 2.625 125.094 2.875C125.552 3.10417 126.021 3.21875 126.5 3.21875C126.875 3.19792 127.302 3.14583 127.781 3.0625C128.198 2.97917 128.677 2.85417 129.219 2.6875C129.781 2.5 130.406 2.22917 131.094 1.875C130.406 2.54167 129.844 3.10417 129.406 3.5625C128.99 4 128.667 4.36458 128.438 4.65625C128.167 4.98958 127.969 5.25 127.844 5.4375C127.719 5.66667 127.531 6.01042 127.281 6.46875C127.052 6.88542 126.74 7.44792 126.344 8.15625C125.948 8.84375 125.448 9.75 124.844 10.875C124.844 9.4375 124.698 8.32292 124.406 7.53125C124.135 6.73958 123.833 6.13542 123.5 5.71875C123.104 5.23958 122.656 4.9375 122.156 4.8125C121.698 4.75 121.24 4.83333 120.781 5.0625C120.323 5.27083 119.865 5.58333 119.406 6C118.969 6.41667 118.542 6.91667 118.125 7.5C117.729 8.0625 117.365 8.65625 117.031 9.28125C116.719 9.90625 116.458 10.5417 116.25 11.1875C116.042 11.8125 115.906 12.3958 115.844 12.9375C115.781 13.4167 115.771 13.9792 115.812 14.625C115.854 15.25 115.948 15.8958 116.094 16.5625C116.24 17.2083 116.427 17.8438 116.656 18.4688C116.885 19.0938 117.167 19.6562 117.5 20.1562C117.854 20.6354 118.25 21.0312 118.688 21.3438C119.125 21.6354 119.625 21.7708 120.188 21.75C120.812 21.7083 121.427 21.5208 122.031 21.1875C122.552 20.9167 123.083 20.5 123.625 19.9375C124.167 19.3542 124.635 18.5312 125.031 17.4688L129.656 18.3125C128.323 19.9375 127.021 21.1562 125.75 21.9688C124.5 22.7812 123.375 23.3542 122.375 23.6875C121.208 24.0625 120.104 24.2396 119.062 24.2188C117.75 24.0729 116.521 23.6771 115.375 23.0312C114.229 22.3854 113.24 21.6042 112.406 20.6875C111.594 19.75 110.958 18.7292 110.5 17.625C110.042 16.5208 109.844 15.4375 109.906 14.375C109.948 13.6667 110.094 12.8438 110.344 11.9062C110.594 10.9479 110.927 9.96875 111.344 8.96875C111.781 7.96875 112.302 6.98958 112.906 6.03125C113.51 5.07292 114.177 4.21875 114.906 3.46875C115.635 2.69792 116.427 2.08333 117.281 1.625C118.156 1.14583 119.062 0.90625 120 0.90625ZM134.562 2.84375C135.604 2.90625 136.479 2.95833 137.188 3C137.917 3.02083 138.521 3.04167 139 3.0625C139.542 3.08333 140 3.08333 140.375 3.0625C140.75 3.04167 141.26 2.98958 141.906 2.90625C142.448 2.84375 143.167 2.75 144.062 2.625C144.979 2.47917 146.115 2.29167 147.469 2.0625C146.99 2.54167 146.615 2.97917 146.344 3.375C146.094 3.75 145.896 4.07292 145.75 4.34375C145.583 4.67708 145.469 4.95833 145.406 5.1875C145.365 5.39583 145.406 5.91667 145.531 6.75C145.656 7.58333 145.833 8.57292 146.062 9.71875C146.292 10.8438 146.542 12.0521 146.812 13.3438C147.083 14.6146 147.354 15.8125 147.625 16.9375C147.896 18.0417 148.135 18.9896 148.344 19.7812C148.573 20.5521 148.74 21.0104 148.844 21.1562C149.156 21.5938 149.354 21.8854 149.438 22.0312C149.521 22.1562 149.667 22.2708 149.875 22.375C149.958 22.4167 150.094 22.4792 150.281 22.5625C150.448 22.6458 150.667 22.75 150.938 22.875C151.229 23 151.594 23.1458 152.031 23.3125C151.219 23.3542 150.521 23.3854 149.938 23.4062C149.354 23.4062 148.875 23.4167 148.5 23.4375C148.062 23.4583 147.688 23.4792 147.375 23.5C147.062 23.5 146.688 23.5208 146.25 23.5625C145.875 23.6042 145.385 23.6458 144.781 23.6875C144.198 23.7292 143.51 23.7708 142.719 23.8125C143.135 23.5208 143.469 23.2604 143.719 23.0312C143.99 22.7812 144.198 22.5729 144.344 22.4062C144.51 22.1979 144.625 22.0104 144.688 21.8438C144.729 21.6562 144.76 21.375 144.781 21C144.802 20.6667 144.802 20.2292 144.781 19.6875C144.76 19.125 144.708 18.3958 144.625 17.5L136.406 18.3438C136.198 18.6979 136.042 19.0104 135.938 19.2812C135.833 19.5312 135.76 19.75 135.719 19.9375C135.656 20.1667 135.635 20.3542 135.656 20.5C135.698 20.6667 135.771 20.8646 135.875 21.0938C135.979 21.3021 136.125 21.5521 136.312 21.8438C136.521 22.1146 136.823 22.4375 137.219 22.8125C136.698 22.7917 136.167 22.7812 135.625 22.7812C135.083 22.7812 134.583 22.7917 134.125 22.8125C133.583 22.8333 133.052 22.8542 132.531 22.875C132.01 22.8958 131.417 22.9271 130.75 22.9688C130.188 23.0104 129.531 23.0625 128.781 23.125C128.01 23.1667 127.188 23.2292 126.312 23.3125C126.854 23.0625 127.312 22.8125 127.688 22.5625C128.062 22.2917 128.375 22.0417 128.625 21.8125C128.917 21.5625 129.167 21.3229 129.375 21.0938C129.521 20.8854 129.812 20.4062 130.25 19.6562C130.688 18.8854 131.177 17.9792 131.719 16.9375C132.281 15.8958 132.865 14.7812 133.469 13.5938C134.094 12.4062 134.656 11.2917 135.156 10.25C135.656 9.1875 136.062 8.27083 136.375 7.5C136.688 6.72917 136.844 6.22917 136.844 6C136.802 5.72917 136.698 5.42708 136.531 5.09375C136.385 4.80208 136.156 4.46875 135.844 4.09375C135.552 3.71875 135.125 3.30208 134.562 2.84375ZM144.25 15.1875C144.125 14.4583 144.01 13.8333 143.906 13.3125C143.802 12.7708 143.719 12.3229 143.656 11.9688C143.573 11.5521 143.51 11.1875 143.469 10.875C143.406 10.5833 143.333 10.2083 143.25 9.75C143.167 9.35417 143.062 8.86458 142.938 8.28125C142.833 7.67708 142.698 6.95833 142.531 6.125C141.344 8.5 140.417 10.3438 139.75 11.6562C139.104 12.9479 138.635 13.8958 138.344 14.5C137.99 15.2083 137.792 15.625 137.75 15.75L144.25 15.1875Z" fill="white"/>
</svg>
