<svg width="28" height="29" viewBox="0 0 28 29" fill="none" xmlns="http://www.w3.org/2000/svg">
<g clip-path="url(#clip0_165_7749)">
<path d="M14.0014 15.6433C17.6934 15.6433 20.6864 12.6504 20.6864 8.95833C20.6864 5.26631 17.6934 2.27333 14.0014 2.27333C10.3094 2.27333 7.31641 5.26631 7.31641 8.95833C7.31641 12.6504 10.3094 15.6433 14.0014 15.6433Z" stroke="#898989" stroke-width="2" stroke-miterlimit="10"/>
<path d="M1.75 27.8933L2.18167 25.5017C2.69161 22.7396 4.15302 20.2433 6.31203 18.4466C8.47103 16.65 11.1912 15.6664 14 15.6667C16.8121 15.6674 19.535 16.6543 21.6944 18.4556C23.8539 20.2569 25.3132 22.7586 25.8183 25.525L26.25 27.9167" stroke="#898989" stroke-width="2" stroke-miterlimit="10"/>
</g>
<defs>
<clipPath id="clip0_165_7749">
<rect width="28" height="28" fill="white" transform="translate(0 0.5)"/>
</clipPath>
</defs>
</svg>
