<svg width="24" height="24" viewBox="0 0 24 24" fill="none" xmlns="http://www.w3.org/2000/svg">
<path d="M9.65684 10.1346C11.9634 10.1346 13.8332 8.26481 13.8332 5.95827C13.8332 3.65172 11.9634 1.78189 9.65684 1.78189C7.3503 1.78189 5.48047 3.65172 5.48047 5.95827C5.48047 8.26481 7.3503 10.1346 9.65684 10.1346Z" stroke="white" stroke-width="1.5" stroke-miterlimit="10"/>
<path d="M1.78125 19.4004L2.46113 16.0301C2.79339 14.3657 3.69202 12.8678 5.00413 11.7912C6.31625 10.7146 7.96082 10.1258 9.65809 10.1249C11.2756 10.1217 12.8479 10.6583 14.1258 11.6498" stroke="white" stroke-width="1.5" stroke-miterlimit="10"/>
<path d="M16.6121 22.1781C19.6857 22.1781 22.1774 19.6865 22.1774 16.6129C22.1774 13.5393 19.6857 11.0476 16.6121 11.0476C13.5385 11.0476 11.0469 13.5393 11.0469 16.6129C11.0469 19.6865 13.5385 22.1781 16.6121 22.1781Z" stroke="white" stroke-width="1.5" stroke-miterlimit="10"/>
<path d="M19.3998 14.7578L16.1559 18.0018L14.3008 16.1564" stroke="white" stroke-width="1.5" stroke-miterlimit="10"/>
</svg>
