<svg width="24" height="24" viewBox="0 0 24 24" fill="none" xmlns="http://www.w3.org/2000/svg">
<g clip-path="url(#clip0_165_7113)">
<path d="M17.0593 20.3314H6.90052C6.23894 20.3334 5.59821 20.1 5.0929 19.673C4.58759 19.246 4.25064 18.6532 4.1423 18.0005L2.67578 9.16255H21.2841L19.8175 18.0005C19.7092 18.6532 19.3722 19.246 18.8669 19.673C18.3616 20.1 17.7209 20.3334 17.0593 20.3314Z" stroke="#CA9F14" stroke-width="1.24869" stroke-miterlimit="10"/>
<path d="M23.1482 9.16255H0.810547" stroke="#CA9F14" stroke-width="1.24869" stroke-miterlimit="10"/>
<path d="M7.32812 11.0273V9.16255L10.1155 2.65549" stroke="#CA9F14" stroke-width="1.24869" stroke-miterlimit="10"/>
<path d="M16.6311 11.0273V9.16255L13.8438 2.65549" stroke="#CA9F14" stroke-width="1.24869" stroke-miterlimit="10"/>
<path d="M11.9785 12.892V17.5441" stroke="#CA9F14" stroke-width="1.24869" stroke-miterlimit="10"/>
<path d="M8.25977 12.892V17.5441" stroke="#CA9F14" stroke-width="1.24869" stroke-miterlimit="10"/>
<path d="M15.6992 12.892V17.5441" stroke="#CA9F14" stroke-width="1.24869" stroke-miterlimit="10"/>
</g>
<defs>
<clipPath id="clip0_165_7113">
<rect width="23.3089" height="23.3089" fill="white" transform="translate(0.324219 0.3246)"/>
</clipPath>
</defs>
</svg>
