<svg width="28" height="29" viewBox="0 0 28 29" fill="none" xmlns="http://www.w3.org/2000/svg">
<path d="M26.25 11.1633H1.75V16.7283H26.25V11.1633Z" stroke="#898989" stroke-width="2" stroke-miterlimit="10"/>
<path d="M25.131 16.7283H2.85938V26.75H25.131V16.7283Z" stroke="#898989" stroke-width="2" stroke-miterlimit="10"/>
<path d="M13.9982 11.1633V5.45833C13.9982 4.60743 13.6602 3.79138 13.0585 3.1897C12.4569 2.58802 11.6408 2.25 10.7899 2.25C10.1711 2.25 9.57756 2.49583 9.13998 2.93342C8.70239 3.371 8.45656 3.96449 8.45656 4.58333C8.44058 4.90514 8.49141 5.22676 8.60586 5.52795C8.72031 5.82914 8.8959 6.10336 9.12156 6.33333L13.9982 11.1167H7.13823C6.2997 11.1167 5.49552 10.7836 4.90259 10.1906C4.30967 9.59771 3.97656 8.79353 3.97656 7.955C3.97656 7.33616 4.2224 6.74267 4.65998 6.30508C5.09756 5.8675 5.69106 5.62167 6.3099 5.62167C7.65538 5.60928 8.95121 6.12929 9.9149 7.06833L13.9982 11.1633Z" stroke="#898989" stroke-width="2" stroke-miterlimit="10"/>
<path d="M14 11.21V5.505C14 5.08367 14.083 4.66648 14.2442 4.27722C14.4055 3.88797 14.6418 3.53429 14.9397 3.23636C15.2376 2.93844 15.5913 2.70212 15.9806 2.54089C16.3698 2.37965 16.787 2.29667 17.2083 2.29667C17.8272 2.29667 18.4207 2.5425 18.8582 2.98008C19.2958 3.41767 19.5417 4.01116 19.5417 4.63C19.5512 4.94406 19.4972 5.25682 19.383 5.54952C19.2687 5.84222 19.0965 6.10882 18.8767 6.33333L14 11.1633H20.8133C21.6519 11.1633 22.456 10.8302 23.049 10.2373C23.6419 9.64437 23.975 8.84019 23.975 8.00167C23.975 7.38283 23.7292 6.78933 23.2916 6.35175C22.854 5.91417 22.2605 5.66833 21.6417 5.66833C20.3123 5.66821 19.0355 6.18731 18.0833 7.115L14 11.21Z" stroke="#898989" stroke-width="2" stroke-miterlimit="10"/>
<path d="M14 26.75V11.1633" stroke="#898989" stroke-width="2" stroke-miterlimit="10"/>
</svg>
