<svg width="24" height="24" viewBox="0 0 24 24" fill="none" xmlns="http://www.w3.org/2000/svg">
<path d="M9.6588 10.1342C11.9653 10.1342 13.8352 8.26442 13.8352 5.95787C13.8352 3.65132 11.9653 1.78149 9.6588 1.78149C7.35225 1.78149 5.48242 3.65132 5.48242 5.95787C5.48242 8.26442 7.35225 10.1342 9.6588 10.1342Z" stroke="#CA9F14" stroke-width="1.25" stroke-miterlimit="10"/>
<path d="M1.78125 19.4L2.46113 16.0297C2.79339 14.3653 3.69202 12.8674 5.00413 11.7908C6.31625 10.7142 7.96082 10.1254 9.65809 10.1245C11.2756 10.1213 12.8479 10.6579 14.1258 11.6494" stroke="#CA9F14" stroke-width="1.25" stroke-miterlimit="10"/>
<path d="M16.6121 22.1777C19.6857 22.1777 22.1774 19.6861 22.1774 16.6125C22.1774 13.5389 19.6857 11.0472 16.6121 11.0472C13.5385 11.0472 11.0469 13.5389 11.0469 16.6125C11.0469 19.6861 13.5385 22.1777 16.6121 22.1777Z" stroke="#CA9F14" stroke-width="1.25" stroke-miterlimit="10"/>
<path d="M19.3998 14.7574L16.1559 18.0014L14.3008 16.156" stroke="#CA9F14" stroke-width="1.25" stroke-miterlimit="10"/>
</svg>
