<svg width="24" height="24" viewBox="0 0 24 24" fill="none" xmlns="http://www.w3.org/2000/svg">
<path d="M11.9801 5.49167C13.0046 5.49167 13.8352 4.66112 13.8352 3.63658C13.8352 2.61205 13.0046 1.78149 11.9801 1.78149C10.9556 1.78149 10.125 2.61205 10.125 3.63658C10.125 4.66112 10.9556 5.49167 11.9801 5.49167Z" stroke="white" stroke-width="1.25" stroke-miterlimit="10"/>
<path d="M11.9801 13.8347C13.0046 13.8347 13.8352 13.0042 13.8352 11.9796C13.8352 10.9551 13.0046 10.1245 11.9801 10.1245C10.9556 10.1245 10.125 10.9551 10.125 11.9796C10.125 13.0042 10.9556 13.8347 11.9801 13.8347Z" stroke="white" stroke-width="1.25" stroke-miterlimit="10"/>
<path d="M11.9801 22.1777C13.0046 22.1777 13.8352 21.3472 13.8352 20.3226C13.8352 19.2981 13.0046 18.4676 11.9801 18.4676C10.9556 18.4676 10.125 19.2981 10.125 20.3226C10.125 21.3472 10.9556 22.1777 11.9801 22.1777Z" stroke="white" stroke-width="1.25" stroke-miterlimit="10"/>
</svg>
