<svg width="15" height="16" viewBox="0 0 15 16" fill="none" xmlns="http://www.w3.org/2000/svg">
<path d="M10.4651 14.2239H4.62738C4.33606 14.2243 4.05571 14.1129 3.84423 13.9125C3.63275 13.7121 3.50628 13.4382 3.49095 13.1473L2.97656 3.9482H12.1159L11.6015 13.1473C11.5862 13.4382 11.4597 13.7121 11.2482 13.9125C11.0367 14.1129 10.7564 14.2243 10.4651 14.2239Z" stroke="#8D2210" stroke-width="0.769014" stroke-miterlimit="10"/>
<path d="M1.83203 3.9482H13.2562" stroke="#8D2210" stroke-width="0.769014" stroke-miterlimit="10"/>
<path d="M6.40023 1.66338H8.68505C8.98804 1.66338 9.27862 1.78374 9.49286 1.99798C9.7071 2.21222 9.82747 2.5028 9.82747 2.80579V3.9482H5.25781V2.80579C5.25781 2.5028 5.37817 2.21222 5.59242 1.99798C5.80666 1.78374 6.09724 1.66338 6.40023 1.66338Z" stroke="#8D2210" stroke-width="0.769014" stroke-miterlimit="10"/>
<path d="M7.54297 5.65884V12.5133" stroke="#8D2210" stroke-width="0.769014" stroke-miterlimit="10"/>
<path d="M9.83203 5.65884V12.5133" stroke="#8D2210" stroke-width="0.769014" stroke-miterlimit="10"/>
<path d="M5.25781 5.65884V12.5133" stroke="#8D2210" stroke-width="0.769014" stroke-miterlimit="10"/>
</svg>
