<svg width="36" height="36" viewBox="0 0 36 36" fill="none" xmlns="http://www.w3.org/2000/svg">
<path d="M5.115 20.865C6.6973 20.865 7.98 19.5823 7.98 18C7.98 16.4177 6.6973 15.135 5.115 15.135C3.5327 15.135 2.25 16.4177 2.25 18C2.25 19.5823 3.5327 20.865 5.115 20.865Z" stroke="#8D2210" stroke-width="1.5" stroke-miterlimit="10"/>
<path d="M18.0017 20.865C19.584 20.865 20.8667 19.5823 20.8667 18C20.8667 16.4177 19.584 15.135 18.0017 15.135C16.4194 15.135 15.1367 16.4177 15.1367 18C15.1367 19.5823 16.4194 20.865 18.0017 20.865Z" stroke="#8D2210" stroke-width="1.5" stroke-miterlimit="10"/>
<path d="M30.8845 20.865C32.4668 20.865 33.7495 19.5823 33.7495 18C33.7495 16.4177 32.4668 15.135 30.8845 15.135C29.3022 15.135 28.0195 16.4177 28.0195 18C28.0195 19.5823 29.3022 20.865 30.8845 20.865Z" stroke="#8D2210" stroke-width="1.5" stroke-miterlimit="10"/>
</svg>
