<svg width="23" height="23" viewBox="0 0 23 23" fill="none" xmlns="http://www.w3.org/2000/svg">
<path d="M12.9297 7.3999C13.637 7.40254 14.3146 7.68469 14.8148 8.18484C15.3149 8.68499 15.5971 9.36258 15.5997 10.0699" stroke="white" stroke-width="1.5" stroke-miterlimit="10"/>
<path d="M12.9297 4.2002C14.4865 4.2002 15.9796 4.81864 17.0804 5.91948C18.1812 7.02032 18.7997 8.51337 18.7997 10.0702" stroke="white" stroke-width="1.5" stroke-miterlimit="10"/>
<path d="M12.9297 1C15.3352 1 17.6422 1.95559 19.3431 3.65654C21.0441 5.3575 21.9997 7.66449 21.9997 10.07" stroke="white" stroke-width="1.5" stroke-miterlimit="10"/>
<path d="M18.2495 20.8798C15.8195 23.2998 10.2495 21.6698 5.78947 17.2098C1.32947 12.7498 -0.300529 7.17984 2.11947 4.74984L4.77947 2.08984L9.90947 7.21984L7.98947 9.15984C7.60354 9.54774 7.38688 10.0727 7.38688 10.6198C7.38688 11.167 7.60354 11.6919 7.98947 12.0798L10.9195 15.0098C11.3074 15.3958 11.8323 15.6124 12.3795 15.6124C12.9267 15.6124 13.4516 15.3958 13.8395 15.0098L15.7795 13.0898L20.9095 18.2198L18.2495 20.8798Z" stroke="white" stroke-width="1.5" stroke-miterlimit="10"/>
</svg>
