<svg width="344" height="220" viewBox="0 0 344 220" fill="none" xmlns="http://www.w3.org/2000/svg">
<path d="M326.139 218.051H217.752H225.261L293.813 217.257C306.486 216.155 315.416 203.725 310.601 191.957C309.769 189.924 310.639 189.357 309.609 187.397C298.832 167.105 280.148 150.575 258.974 140.972C259.499 140.873 260.027 140.801 260.566 140.729C256.624 138.754 252.563 137.025 248.406 135.549C246.202 134.763 243.972 134.052 241.745 133.429C230.797 130.343 216.004 131.753 211.345 143.875C207.427 154.052 212.629 166.345 222.414 170.802L239.989 177.52C239.841 177.3 239.708 177.08 239.571 176.848L254.855 182.688C255.158 182.901 255.39 183.201 255.517 183.548C255.645 183.896 255.664 184.274 255.571 184.632C255.478 184.991 255.278 185.313 254.997 185.554C254.716 185.795 254.368 185.945 254 185.983L216.882 190.038C211.531 190.577 204.832 192.815 200.887 196.498C198.011 199.158 195.586 202.779 195.609 207.362C193.183 207.545 190.771 207.884 188.389 208.376C184.753 209.159 181.051 210.508 180.789 212.724C180.272 217.17 186.592 218.074 190.574 218.074L165.373 217.975C168.078 217.975 168.413 217.952 170.206 216.166C172 214.38 174.006 213.005 174.006 210.299L174.227 201.628C174.227 199.842 174.652 198.398 172.866 198.398H156.906C157.556 198.415 158.197 198.246 158.753 197.909C159.309 197.572 159.756 197.082 160.041 196.498C160.053 196.484 160.061 196.467 160.064 196.448C160.862 194.966 161.044 192.834 160.896 190.817L161.082 190.155L161.561 188.392L171.7 182.426C171.776 182.382 171.849 182.334 171.92 182.282C177.21 179.048 177.871 173.268 176.058 168.1C176.02 168.001 175.997 167.914 175.959 167.83C175.876 167.61 175.8 167.401 175.705 167.192C175.221 166.014 174.621 164.886 173.915 163.825C171.297 159.736 167.497 156.404 163.887 155.534C162.874 155.305 161.839 155.19 160.801 155.192C173.364 143.412 187.838 132.943 204.934 129.462C219.893 126.372 235.362 126.775 250.139 130.64C267.406 135.234 282.956 144.772 295.287 157.654C311.885 174.971 319.649 195.202 326.139 218.051Z" fill="#8D2210"/>
<path d="M157.266 165.987C156.67 167.16 155.695 168.098 154.5 168.647C153.478 169.16 152.397 169.543 151.281 169.787C149.442 170.095 148.792 168.932 147.618 167.792C146.948 167.145 146.178 166.611 145.338 166.211C144.834 165.964 144.282 165.831 143.721 165.823C143.16 165.814 142.604 165.93 142.093 166.162C141.747 166.316 141.453 166.567 141.246 166.885C141.04 167.202 140.93 167.573 140.93 167.952C141.006 169.346 142.929 170.448 144.015 171.026C145.434 171.696 146.909 172.24 148.423 172.652C152.136 173.792 145.953 176.167 144.654 176.315C141.874 176.692 139.053 176.625 136.294 176.118C137.086 177.887 137.693 179.734 138.106 181.628C138.536 183.44 139.037 185.622 138.684 187.446C138.255 189.589 136.807 191.181 135.021 192.26L128.078 163.297C130.638 162.077 133.422 161.4 136.256 161.307C139.091 161.214 141.913 161.708 144.547 162.757C145.426 163.081 146.379 163.146 147.293 162.944C148.207 162.741 149.044 162.281 149.704 161.617L150.415 160.929C151.404 160.714 152.435 160.796 153.379 161.165C155.062 161.799 158.178 163.84 157.266 165.987Z" fill="#CA9F14"/>
<path d="M164.397 198.374H135.729C135.439 201.078 134.16 203.58 132.137 205.398C130.114 207.215 127.49 208.22 124.77 208.22H28.3945C28.4006 210.826 29.4388 213.324 31.2818 215.167C33.1248 217.01 35.6225 218.048 38.2289 218.054H164.389C166.995 218.045 169.493 217.007 171.337 215.164C173.181 213.322 174.223 210.826 174.235 208.22V201.608C174.235 200.75 173.894 199.927 173.288 199.321C172.681 198.714 171.859 198.374 171.001 198.374H164.397Z" stroke="black" stroke-width="3.29515" stroke-miterlimit="10"/>
<path d="M120.127 134.086C120.974 135.253 121.582 136.575 121.917 137.977L135.498 194.597C135.798 195.826 135.877 197.099 135.73 198.355C135.44 201.06 134.161 203.561 132.138 205.379C130.114 207.196 127.491 208.202 124.771 208.201H26.6054C24.1271 208.2 21.7209 207.364 19.7751 205.829C17.8292 204.294 16.4565 202.149 15.878 199.739L2.31204 143.119C1.92022 141.497 1.90183 139.807 2.25827 138.177C2.61467 136.547 3.33663 135.019 4.36966 133.709C5.40269 132.398 6.71981 131.339 8.22165 130.612C9.72348 129.885 11.3708 129.509 13.0394 129.511H111.19C112.802 129.509 114.395 129.862 115.855 130.546C117.315 131.229 118.606 132.227 119.637 133.467L120.127 134.086Z" stroke="black" stroke-width="3.29515" stroke-miterlimit="10"/>
<path d="M72.5008 184.381C78.091 182.618 81.017 176.096 79.036 169.813C77.0551 163.53 70.9173 159.866 65.3268 161.628C59.7366 163.391 56.8106 169.913 58.7915 176.196C60.7724 182.479 66.9102 186.143 72.5008 184.381Z" fill="#8D2210"/>
<path d="M261.102 140.398C252.442 141.846 245.784 145.805 241.316 154.002C237.314 161.336 236.847 170.285 241.114 177.562L223.691 170.881C213.602 166.261 210.053 155.993 214.096 145.448C218.903 132.885 234.156 131.426 245.446 134.626C247.745 135.272 250.04 136.009 252.313 136.822C255.282 137.886 258.212 139.078 261.102 140.398Z" fill="#8D2210"/>
<path d="M58.1953 129.519C65.1075 120.587 74.639 114.039 85.4565 110.792C84.0155 106.922 82.8725 102.947 82.0365 98.9022C73.0609 55.2478 101.132 12.57 144.775 3.56777C188.418 -5.43443 231.11 22.6248 240.109 66.2678C241.115 71.1584 241.675 76.1303 241.781 81.122C244.899 80.0158 248.09 79.127 251.33 78.462C289.471 70.577 326.787 95.1174 334.661 133.266C336.883 143.992 336.572 155.089 333.753 165.674C330.935 176.258 325.685 186.04 318.423 194.24" stroke="#9F9F9F" stroke-width="3.29515" stroke-miterlimit="10"/>
<path d="M153.328 198.379H156.022C156.797 198.398 157.565 198.235 158.266 197.906C158.967 197.576 159.582 197.087 160.062 196.479C160.074 196.465 160.083 196.448 160.088 196.429C161.055 195.108 161.495 193.475 161.323 191.846L161.103 190.133L160.921 188.749L161.582 188.369L171.941 182.259L172.64 181.856C177.698 178.881 178.062 173.333 176.079 168.077C176.045 167.982 176.018 167.895 175.984 167.808C175.896 167.587 175.809 167.382 175.725 167.173C175.218 166.006 174.62 164.88 173.936 163.806C171.317 159.714 167.521 156.385 163.907 155.515C162.895 155.284 161.86 155.169 160.822 155.173C158.656 155.173 156.262 155.587 155.004 156.837C168.441 143.617 184.139 131.21 203.021 127.36C217.986 124.276 233.461 124.686 248.241 128.561C265.508 133.155 281.073 142.705 293.404 155.587C294.054 156.264 294.688 156.947 295.304 157.646C310.758 174.632 320.616 196.087 326.844 218.044" stroke="black" stroke-width="3.29515" stroke-miterlimit="10"/>
<path d="M158.066 218.055H344" stroke="black" stroke-width="3.29515" stroke-miterlimit="10"/>
<path d="M204.875 218.051H225.973" stroke="black" stroke-width="2.19677" stroke-miterlimit="10"/>
<path d="M222.512 170.702C212.724 166.245 207.525 153.952 211.439 143.779C216.106 131.653 230.899 130.243 241.839 133.329C244.074 133.955 246.294 134.662 248.501 135.449C273.098 144.189 295.45 162.334 307.655 185.324C308.685 187.27 309.506 189.269 310.338 191.306C311.46 194.042 311.923 197.004 311.688 199.952C311.454 202.9 310.531 205.752 308.991 208.277C307.452 210.802 305.34 212.93 302.827 214.488C300.313 216.047 297.469 216.992 294.522 217.248L225.974 218.05H204.877C203.013 218.05 201.196 217.467 199.68 216.382C198.164 215.297 197.026 213.765 196.425 212C194.111 205.16 197.102 200 200.883 196.485C204.827 192.822 209.972 190.728 215.323 190.188L253.832 186.297C254.201 186.26 254.549 186.11 254.831 185.869C255.112 185.627 255.313 185.306 255.407 184.947C255.501 184.589 255.483 184.21 255.355 183.862C255.228 183.514 254.997 183.212 254.695 182.999L222.512 170.702Z" stroke="black" stroke-width="3.29515" stroke-miterlimit="10"/>
<path d="M211.028 197.66C207.513 199.682 203.899 202.847 202.691 206.856C201.3 211.473 204.564 215.668 208.273 218.07" stroke="black" stroke-width="3.29515" stroke-miterlimit="10"/>
<path d="M214.8 202.958C211.52 206.077 208.678 210.033 210.574 214.738C211.116 216.028 211.961 217.17 213.037 218.066" stroke="black" stroke-width="3.29515" stroke-miterlimit="10"/>
<path d="M221.232 209.06C221.232 209.06 213.682 214.673 218.477 218.039" stroke="black" stroke-width="3.29515" stroke-miterlimit="10"/>
<path d="M201.853 217.515L201.986 218.054H189.803C185.82 218.054 180.303 217.442 180.823 212.996C181.344 208.55 195.605 207.338 195.605 207.338" stroke="black" stroke-width="3.29515" stroke-miterlimit="10"/>
<path d="M180 77.7088L154.072 81.5886L158.591 84.773L167.042 91.5408C168.364 92.4718 168.034 94.6682 168.767 96.002C169.045 98.0153 168.729 100.066 167.857 101.902C166.985 103.737 165.595 105.277 163.858 106.333C162.121 107.389 160.114 107.914 158.083 107.843C156.052 107.772 154.086 107.109 152.427 105.935L132.04 91.594C129.79 90.0402 127.983 87.9263 126.8 85.4608C125.132 77.1578 130.25 67.9238 140.1 66.4608L168.44 62.2048L164.26 58.9596L151.39 48.9428C150.287 48.0893 149.367 47.0231 148.684 45.8078C148.398 43.7505 148.733 41.6544 149.645 39.7882C150.558 37.9224 152.008 36.3717 153.808 35.335C155.608 34.2984 157.677 33.823 159.749 33.9701C161.821 34.1167 163.802 34.8794 165.438 36.1596L188.398 54.0196C190.275 55.4617 191.793 57.3188 192.832 59.446C194.398 67.4716 189.39 76.299 180 77.7088Z" fill="#CA9F14"/>
<path d="M160.926 188.745C160.926 188.745 160.136 181.791 157.457 179.34" stroke="black" stroke-width="3.29515" stroke-miterlimit="10"/>
<path d="M127.812 163.784C130.4 162.513 133.224 161.799 136.104 161.688C138.984 161.576 141.855 162.07 144.533 163.138C145.412 163.462 146.366 163.527 147.282 163.325C148.197 163.123 149.036 162.662 149.697 161.998L154.99 156.815" stroke="black" stroke-width="3.29515" stroke-miterlimit="10"/>
<path d="M144.641 193.323L149.06 195.311C149.158 195.352 149.264 195.371 149.37 195.368C149.477 195.365 149.581 195.34 149.678 195.294C149.773 195.249 149.859 195.183 149.928 195.102C149.997 195.021 150.048 194.927 150.078 194.824L150.774 193.251" stroke="black" stroke-width="3.29515" stroke-miterlimit="10"/>
<path d="M145.363 184.545C145.733 185.396 145.862 186.331 145.734 187.25C145.607 188.169 145.228 189.034 144.641 189.751" stroke="black" stroke-width="2.19677" stroke-miterlimit="10"/>
<path d="M155.389 198.374C156.084 197.344 156.08 194.855 155.902 193.855C155.788 193.221 154.72 192.993 154.606 193.632C154.294 195.414 152.284 198.154 150.426 198.374" stroke="black" stroke-width="3.29515" stroke-miterlimit="10"/>
<path d="M146.466 191.656C149.6 191.656 152.14 189.116 152.14 185.983C152.14 182.849 149.6 180.309 146.466 180.309C143.333 180.309 140.793 182.849 140.793 185.983C140.793 189.116 143.333 191.656 146.466 191.656Z" stroke="black" stroke-width="3.29515" stroke-miterlimit="10"/>
<path d="M144.562 191.325L143.551 194.167C142.849 193.917 142.105 193.808 141.361 193.845C140.617 193.883 139.887 194.067 139.214 194.386C138.541 194.706 137.938 195.155 137.439 195.709C136.939 196.262 136.554 196.908 136.305 197.61" stroke="black" stroke-width="3.29515" stroke-miterlimit="10"/>
<path opacity="0.53" d="M146.467 190.785C149.12 190.785 151.27 188.635 151.27 185.982C151.27 183.329 149.12 181.179 146.467 181.179C143.814 181.179 141.664 183.329 141.664 185.982C141.664 188.635 143.814 190.785 146.467 190.785Z" fill="white"/>
<path d="M135 192.633C136.786 191.554 138.23 189.973 138.659 187.822C139.017 185.994 138.515 183.817 138.086 182.004C137.673 180.11 137.066 178.264 136.273 176.494C139.032 177.001 141.854 177.066 144.633 176.688C145.929 176.544 152.115 174.18 148.403 173.029C146.889 172.618 145.415 172.072 143.998 171.399C142.904 170.832 140.985 169.73 140.917 168.332C140.912 167.954 141.017 167.583 141.219 167.264C141.422 166.945 141.713 166.692 142.057 166.535C142.568 166.304 143.124 166.189 143.686 166.199C144.247 166.209 144.799 166.343 145.302 166.592C146.145 166.988 146.915 167.522 147.582 168.172C148.76 169.312 149.402 170.452 151.249 170.16C152.364 169.92 153.443 169.536 154.46 169.02C155.658 168.471 156.636 167.534 157.234 166.36C158.153 164.22 155.03 162.18 153.335 161.568C152.393 161.198 151.364 161.114 150.375 161.325" stroke="black" stroke-width="3.29515" stroke-miterlimit="10"/>
<path d="M179.998 77.7088L154.071 81.5886L158.589 84.773L164.433 88.877C165.58 89.6541 166.561 90.652 167.319 91.8121C168.076 92.9723 168.595 94.2719 168.845 95.6346C169.094 96.9976 169.07 98.3964 168.773 99.7499C168.476 101.103 167.912 102.384 167.114 103.517C166.317 104.65 165.302 105.613 164.128 106.349C162.955 107.086 161.646 107.581 160.279 107.806C158.912 108.031 157.513 107.982 156.166 107.661C154.818 107.339 153.548 106.753 152.429 105.935L132.042 91.594C129.792 90.0402 127.986 87.9263 126.802 85.4608C122.466 76.4586 127.535 64.4696 138.863 62.7786L161.348 59.4118L164.258 58.9596L151.388 48.9428C150.307 48.1019 149.403 47.0561 148.726 45.8656C148.05 44.675 147.614 43.3625 147.445 42.0036C147.276 40.6451 147.376 39.2661 147.739 37.9456C148.103 36.6255 148.723 35.3897 149.564 34.309C150.405 33.2287 151.451 32.3243 152.641 31.6475C153.832 30.9711 155.144 30.5356 156.503 30.3665C157.862 30.197 159.241 30.297 160.561 30.6606C161.881 31.0239 163.117 31.6441 164.198 32.485L187.157 50.345C190.096 52.5802 192.11 55.8182 192.815 59.4422C194.396 67.4716 189.388 76.299 179.998 77.7088Z" stroke="black" stroke-width="3.29515" stroke-miterlimit="10"/>
<path d="M123.09 121.785L122.839 115.162L119.902 118.172C119.404 118.681 118.723 118.972 118.011 118.98C117.299 118.989 116.612 118.714 116.102 118.217C115.593 117.719 115.302 117.039 115.293 116.327C115.285 115.614 115.559 114.928 116.056 114.417L121.319 109.044C121.861 108.489 122.555 108.105 123.313 107.94C124.072 107.775 124.862 107.836 125.585 108.116C126.309 108.395 126.936 108.881 127.386 109.513C127.837 110.144 128.092 110.894 128.121 111.67L128.368 118.426L130.534 115.983C130.768 115.718 131.053 115.501 131.371 115.347C131.688 115.192 132.034 115.101 132.387 115.08C132.74 115.058 133.093 115.107 133.428 115.223C133.762 115.339 134.07 115.52 134.334 115.755C134.599 115.989 134.815 116.273 134.97 116.591C135.125 116.908 135.216 117.254 135.238 117.607C135.259 117.96 135.211 118.313 135.096 118.648C134.981 118.982 134.8 119.29 134.566 119.555L130.299 124.369C129.754 124.991 129.035 125.434 128.236 125.641C127.436 125.848 126.592 125.81 125.815 125.531C125.037 125.253 124.361 124.746 123.875 124.078C123.389 123.41 123.116 122.611 123.09 121.785Z" fill="#8D2210"/>
<path d="M145.108 133.733L148.235 133.034L146.544 131.894C146.257 131.7 146.059 131.402 145.992 131.063C145.925 130.724 145.995 130.372 146.187 130.085C146.38 129.798 146.679 129.6 147.018 129.534C147.357 129.467 147.709 129.539 147.996 129.732L151.013 131.749C151.326 131.958 151.57 132.254 151.716 132.601C151.862 132.947 151.903 133.329 151.834 133.698C151.764 134.068 151.588 134.409 151.327 134.68C151.065 134.95 150.73 135.137 150.363 135.219L147.16 135.941L148.516 136.758C148.662 136.846 148.79 136.962 148.891 137.099C148.993 137.237 149.066 137.393 149.107 137.559C149.148 137.725 149.156 137.897 149.13 138.067C149.104 138.235 149.046 138.398 148.957 138.544C148.779 138.839 148.491 139.052 148.156 139.135C147.821 139.218 147.467 139.165 147.171 138.988L144.511 137.381C144.169 137.177 143.896 136.874 143.728 136.512C143.56 136.151 143.505 135.747 143.569 135.354C143.633 134.961 143.814 134.596 144.089 134.307C144.363 134.018 144.718 133.818 145.108 133.733Z" fill="#8D2210"/>
<path d="M137.202 151.999L137.456 149.909L136.381 150.707C136.291 150.774 136.189 150.823 136.079 150.85C135.97 150.878 135.857 150.884 135.746 150.868C135.635 150.852 135.528 150.814 135.432 150.756C135.335 150.698 135.251 150.622 135.184 150.532C135.049 150.35 134.992 150.122 135.025 149.898C135.057 149.674 135.177 149.471 135.359 149.335L137.259 147.91C137.457 147.763 137.693 147.677 137.94 147.662C138.186 147.648 138.432 147.707 138.645 147.83C138.859 147.954 139.031 148.138 139.142 148.359C139.252 148.58 139.295 148.828 139.265 149.073L139.007 151.209L139.808 150.548C139.895 150.476 139.995 150.423 140.103 150.39C140.21 150.357 140.323 150.346 140.435 150.356C140.547 150.367 140.656 150.401 140.755 150.453C140.854 150.507 140.942 150.578 141.013 150.665C141.084 150.752 141.138 150.852 141.171 150.96C141.204 151.067 141.215 151.18 141.204 151.292C141.193 151.404 141.16 151.512 141.107 151.612C141.054 151.711 140.982 151.799 140.895 151.87L139.314 153.17C139.112 153.33 138.867 153.428 138.609 153.449C138.351 153.471 138.093 153.415 137.867 153.29C137.641 153.165 137.457 152.975 137.338 152.746C137.22 152.516 137.172 152.256 137.202 151.999Z" fill="#8D2210"/>
<path d="M261.106 140.66L260.946 140.93C260.825 140.854 260.698 140.788 260.566 140.732L261.106 140.66Z" fill="#8D2210"/>
</svg>
