<svg width="346" height="281" viewBox="0 0 346 281" fill="none" xmlns="http://www.w3.org/2000/svg">
<path d="M83.5975 127.416C83.5975 127.416 77.7683 71.9358 117.448 64.465C157.127 56.9942 164.503 63.2604 192.141 44.2908C219.778 25.3212 307.098 81.3142 289.421 160.073C287.336 169.413 284.69 178.62 281.498 187.642" stroke="#CCDDE2" stroke-width="2.52424" stroke-miterlimit="10"/>
<path d="M254.729 90.6884H240.297V279.165H254.729V90.6884Z" stroke="#CCDDE2" stroke-width="2.52424" stroke-miterlimit="10"/>
<path d="M125.605 235.746V90.6884H240.293V279.168H220.97V221.283C220.965 218.962 220.04 216.739 218.397 215.1C216.754 213.461 214.528 212.542 212.207 212.543H154.523C152.204 212.543 149.978 213.463 148.335 215.102C146.692 216.74 145.767 218.963 145.761 221.283V279.168H126.954M125.605 257.349V247.526M139.365 188.801C139.244 188.8 139.124 188.776 139.013 188.729C138.901 188.682 138.8 188.613 138.715 188.527C138.63 188.441 138.562 188.339 138.517 188.227C138.472 188.114 138.448 187.994 138.449 187.873V180.456C138.449 180.213 138.546 179.98 138.718 179.808C138.89 179.637 139.122 179.54 139.365 179.54H154.322C154.443 179.539 154.563 179.562 154.675 179.607C154.788 179.653 154.89 179.72 154.976 179.805C155.062 179.89 155.131 179.991 155.177 180.103C155.224 180.215 155.249 180.335 155.249 180.456V187.873C155.25 187.995 155.226 188.116 155.18 188.229C155.133 188.342 155.065 188.444 154.979 188.53C154.892 188.616 154.79 188.684 154.677 188.731C154.565 188.777 154.444 188.801 154.322 188.801H139.365ZM165.657 200.839C165.656 201.083 165.557 201.317 165.383 201.49C165.209 201.662 164.975 201.759 164.73 201.759H149.773C149.529 201.759 149.294 201.662 149.121 201.49C148.947 201.317 148.848 201.083 148.846 200.839V193.414C148.849 193.17 148.948 192.937 149.122 192.766C149.295 192.594 149.53 192.498 149.773 192.498H164.73C164.974 192.498 165.208 192.594 165.382 192.766C165.556 192.937 165.654 193.17 165.657 193.414V200.839ZM158.179 187.873V180.456C158.179 180.335 158.204 180.215 158.251 180.103C158.298 179.991 158.366 179.89 158.452 179.805C158.539 179.72 158.641 179.653 158.753 179.607C158.865 179.562 158.985 179.539 159.106 179.54H174.063C174.307 179.54 174.541 179.636 174.715 179.808C174.888 179.979 174.987 180.212 174.99 180.456V187.873C174.989 188.119 174.891 188.354 174.717 188.528C174.544 188.701 174.309 188.799 174.063 188.801H159.102C158.981 188.801 158.86 188.777 158.748 188.73C158.636 188.683 158.534 188.615 158.448 188.529C158.362 188.443 158.295 188.34 158.248 188.228C158.202 188.115 158.179 187.995 158.179 187.873ZM185.319 200.839C185.319 200.959 185.296 201.079 185.25 201.19C185.204 201.302 185.137 201.403 185.052 201.489C184.967 201.574 184.866 201.642 184.754 201.688C184.643 201.735 184.523 201.759 184.403 201.759H169.431C169.31 201.759 169.191 201.735 169.079 201.688C168.968 201.642 168.867 201.574 168.782 201.489C168.697 201.403 168.629 201.302 168.584 201.19C168.538 201.079 168.515 200.959 168.515 200.839V193.414C168.515 193.171 168.612 192.938 168.783 192.766C168.955 192.595 169.188 192.498 169.431 192.498H184.399C184.642 192.498 184.875 192.595 185.047 192.766C185.218 192.938 185.315 193.171 185.315 193.414L185.319 200.839ZM194.712 187.873C194.713 187.995 194.689 188.116 194.643 188.229C194.596 188.342 194.528 188.444 194.442 188.53C194.355 188.616 194.253 188.684 194.14 188.731C194.028 188.777 193.907 188.801 193.785 188.801H178.828C178.707 188.8 178.587 188.776 178.475 188.729C178.364 188.682 178.262 188.613 178.177 188.527C178.091 188.441 178.023 188.339 177.977 188.227C177.931 188.115 177.908 187.995 177.909 187.873V180.456C177.909 180.335 177.933 180.216 177.979 180.104C178.025 179.993 178.093 179.892 178.178 179.807C178.264 179.722 178.365 179.654 178.477 179.608C178.588 179.563 178.708 179.539 178.828 179.54H193.781C193.902 179.539 194.023 179.562 194.135 179.607C194.247 179.653 194.349 179.72 194.435 179.805C194.521 179.89 194.59 179.991 194.637 180.103C194.684 180.215 194.708 180.335 194.708 180.456L194.712 187.873ZM214.438 187.873C214.439 187.994 214.416 188.114 214.371 188.227C214.325 188.339 214.258 188.441 214.173 188.527C214.088 188.613 213.986 188.682 213.875 188.729C213.763 188.776 213.643 188.8 213.522 188.801H198.562C198.44 188.801 198.319 188.777 198.206 188.731C198.094 188.684 197.991 188.616 197.905 188.53C197.819 188.444 197.75 188.342 197.704 188.229C197.658 188.116 197.634 187.995 197.634 187.873V180.456C197.635 180.335 197.66 180.215 197.706 180.103C197.753 179.991 197.822 179.89 197.908 179.805C197.994 179.72 198.096 179.653 198.208 179.607C198.32 179.562 198.44 179.539 198.562 179.54H213.518C213.761 179.54 213.994 179.637 214.166 179.808C214.338 179.98 214.434 180.213 214.434 180.456L214.438 187.873ZM228.285 160.023C228.288 161.173 228.064 162.312 227.627 163.375C227.189 164.438 226.545 165.404 225.734 166.218C224.922 167.032 223.957 167.678 222.895 168.118C221.833 168.559 220.695 168.786 219.545 168.786H146.524C144.201 168.785 141.972 167.861 140.329 166.218C138.686 164.575 137.763 162.347 137.762 160.023V129.125C137.762 126.801 138.685 124.572 140.328 122.929C141.972 121.286 144.2 120.363 146.524 120.363H219.53C220.68 120.363 221.818 120.589 222.88 121.03C223.942 121.471 224.906 122.116 225.718 122.93C226.53 123.745 227.173 124.711 227.612 125.774C228.049 126.837 228.273 127.976 228.27 129.125L228.285 160.023ZM227.005 110.129C226.603 110.537 226.123 110.86 225.594 111.08C225.066 111.299 224.499 111.412 223.927 111.41H142.808C141.652 111.409 140.544 110.949 139.727 110.132C138.91 109.315 138.451 108.207 138.449 107.051C138.454 105.896 138.914 104.79 139.73 103.974C140.547 103.157 141.653 102.696 142.808 102.693H223.919C224.492 102.692 225.059 102.804 225.588 103.023C226.117 103.242 226.597 103.563 227.002 103.968C227.407 104.373 227.728 104.854 227.947 105.383C228.166 105.912 228.278 106.479 228.278 107.051C228.28 107.623 228.168 108.19 227.949 108.719C227.73 109.247 227.407 109.727 227.001 110.129H227.005Z" stroke="#CCDDE2" stroke-width="2.52424" stroke-miterlimit="10"/>
<path d="M154.322 188.801H139.365C139.244 188.8 139.124 188.776 139.012 188.729C138.901 188.682 138.8 188.613 138.715 188.527C138.629 188.441 138.562 188.339 138.517 188.227C138.471 188.115 138.448 187.995 138.449 187.873V180.456C138.449 180.213 138.546 179.98 138.718 179.808C138.889 179.637 139.122 179.54 139.365 179.54H154.322C154.443 179.539 154.563 179.562 154.675 179.608C154.787 179.653 154.89 179.72 154.976 179.805C155.062 179.89 155.13 179.992 155.177 180.103C155.224 180.215 155.249 180.335 155.249 180.456V187.873C155.249 187.995 155.226 188.116 155.18 188.229C155.133 188.342 155.065 188.444 154.979 188.53C154.892 188.616 154.79 188.685 154.677 188.731C154.565 188.777 154.444 188.801 154.322 188.801Z" stroke="#CCDDE2" stroke-width="2.52424" stroke-miterlimit="10"/>
<path d="M149.775 192.499H164.732C164.976 192.499 165.21 192.595 165.383 192.766C165.557 192.938 165.656 193.171 165.659 193.415V200.84C165.657 201.084 165.558 201.318 165.384 201.49C165.211 201.662 164.976 201.759 164.732 201.759H149.775C149.53 201.759 149.296 201.662 149.122 201.49C148.948 201.318 148.85 201.084 148.848 200.84V193.415C148.851 193.171 148.949 192.938 149.123 192.766C149.297 192.595 149.531 192.499 149.775 192.499Z" stroke="#CCDDE2" stroke-width="2.52424" stroke-miterlimit="10"/>
<path d="M174.987 180.456V187.873C174.986 188.119 174.888 188.354 174.714 188.528C174.54 188.702 174.305 188.799 174.06 188.801H159.103C158.981 188.801 158.86 188.777 158.748 188.731C158.635 188.685 158.533 188.616 158.446 188.53C158.36 188.444 158.292 188.342 158.245 188.229C158.199 188.116 158.175 187.995 158.176 187.873V180.456C158.176 180.335 158.201 180.215 158.248 180.103C158.294 179.992 158.363 179.89 158.449 179.805C158.535 179.72 158.637 179.653 158.75 179.608C158.862 179.562 158.982 179.539 159.103 179.54H174.06C174.304 179.54 174.538 179.636 174.711 179.808C174.885 179.979 174.984 180.212 174.987 180.456Z" stroke="#CCDDE2" stroke-width="2.52424" stroke-miterlimit="10"/>
<path d="M184.4 192.499H169.431C168.926 192.499 168.516 192.909 168.516 193.415V200.844C168.516 201.349 168.926 201.759 169.431 201.759H184.4C184.905 201.759 185.315 201.349 185.315 200.844V193.415C185.315 192.909 184.905 192.499 184.4 192.499Z" stroke="#CCDDE2" stroke-width="2.52424" stroke-miterlimit="10"/>
<path d="M178.83 188.801C178.709 188.8 178.588 188.776 178.477 188.729C178.365 188.682 178.263 188.614 178.178 188.527C178.093 188.442 178.025 188.339 177.979 188.227C177.933 188.115 177.91 187.995 177.91 187.873V180.456C177.91 180.335 177.934 180.216 177.98 180.104C178.026 179.993 178.094 179.892 178.18 179.807C178.265 179.722 178.367 179.654 178.478 179.609C178.59 179.563 178.709 179.54 178.83 179.54H193.783C193.904 179.539 194.024 179.562 194.136 179.608C194.248 179.653 194.35 179.72 194.437 179.805C194.523 179.89 194.591 179.992 194.638 180.103C194.685 180.215 194.71 180.335 194.71 180.456V187.873C194.71 187.995 194.687 188.116 194.64 188.229C194.594 188.342 194.526 188.444 194.439 188.53C194.353 188.616 194.251 188.685 194.138 188.731C194.026 188.777 193.905 188.801 193.783 188.801H178.83Z" stroke="#CCDDE2" stroke-width="2.52424" stroke-miterlimit="10"/>
<path d="M198.564 188.801C198.442 188.801 198.321 188.777 198.209 188.731C198.096 188.685 197.994 188.616 197.907 188.53C197.821 188.444 197.753 188.342 197.706 188.229C197.66 188.116 197.636 187.995 197.637 187.873V180.456C197.637 180.335 197.662 180.215 197.709 180.103C197.756 179.992 197.824 179.89 197.91 179.805C197.996 179.72 198.098 179.653 198.211 179.608C198.323 179.562 198.443 179.539 198.564 179.54H213.521C213.764 179.54 213.996 179.637 214.168 179.808C214.34 179.98 214.437 180.213 214.437 180.456V187.873C214.438 187.995 214.414 188.115 214.369 188.227C214.324 188.339 214.256 188.441 214.171 188.527C214.086 188.613 213.985 188.682 213.873 188.729C213.762 188.776 213.642 188.8 213.521 188.801H198.564Z" stroke="#CCDDE2" stroke-width="2.52424" stroke-miterlimit="10"/>
<path d="M220.971 221.284V279.169H145.762V221.284C145.768 218.963 146.693 216.74 148.336 215.102C149.979 213.464 152.205 212.544 154.525 212.544H212.209C214.529 212.543 216.755 213.462 218.398 215.101C220.041 216.74 220.966 218.963 220.971 221.284Z" stroke="#CCDDE2" stroke-width="2.52424" stroke-miterlimit="10"/>
<path d="M138.449 107.051C138.453 105.896 138.914 104.79 139.73 103.974C140.547 103.157 141.653 102.696 142.808 102.693H223.919C224.491 102.692 225.058 102.804 225.587 103.023C226.116 103.242 226.597 103.563 227.002 103.968C227.407 104.373 227.728 104.853 227.947 105.383C228.166 105.912 228.278 106.479 228.277 107.051C228.274 108.206 227.813 109.312 226.996 110.128C226.18 110.945 225.074 111.406 223.919 111.41H142.808C141.652 111.409 140.544 110.949 139.727 110.132C138.91 109.315 138.45 108.207 138.449 107.051Z" stroke="#CCDDE2" stroke-width="2.52424" stroke-miterlimit="10"/>
<path d="M178.656 133.446V155.741C178.657 156.551 178.499 157.354 178.189 158.103C177.88 158.851 177.426 159.532 176.854 160.106C176.282 160.679 175.602 161.134 174.854 161.445C174.105 161.755 173.303 161.916 172.493 161.916H150.875C149.239 161.914 147.67 161.262 146.514 160.105C145.359 158.947 144.71 157.377 144.711 155.741V133.446C144.711 132.637 144.869 131.834 145.179 131.086C145.488 130.338 145.942 129.657 146.515 129.084C147.087 128.511 147.767 128.056 148.515 127.746C149.263 127.436 150.065 127.276 150.875 127.275H172.493C173.303 127.275 174.105 127.435 174.853 127.745C175.602 128.055 176.281 128.51 176.854 129.083C177.426 129.656 177.88 130.336 178.189 131.085C178.499 131.834 178.657 132.636 178.656 133.446Z" stroke="#CCDDE2" stroke-width="2.52424" stroke-miterlimit="10"/>
<path d="M221.104 133.419V155.771C221.105 156.581 220.947 157.383 220.637 158.132C220.328 158.881 219.874 159.562 219.302 160.135C218.73 160.709 218.05 161.164 217.302 161.474C216.553 161.785 215.751 161.945 214.941 161.946H193.281C192.47 161.945 191.668 161.785 190.919 161.474C190.171 161.164 189.491 160.709 188.918 160.135C188.346 159.562 187.891 158.881 187.582 158.132C187.272 157.384 187.113 156.581 187.113 155.771V133.419C187.113 132.609 187.272 131.806 187.582 131.057C187.891 130.308 188.346 129.628 188.918 129.054C189.491 128.481 190.171 128.026 190.919 127.715C191.668 127.405 192.47 127.244 193.281 127.244H214.941C215.751 127.244 216.553 127.405 217.302 127.715C218.05 128.026 218.73 128.481 219.302 129.054C219.874 129.628 220.328 130.308 220.637 131.057C220.947 131.806 221.105 132.609 221.104 133.419Z" stroke="#CCDDE2" stroke-width="2.52424" stroke-miterlimit="10"/>
<path d="M219.53 120.363H146.525C144.2 120.363 141.972 121.286 140.328 122.929C138.685 124.572 137.762 126.801 137.762 129.125V160.023C137.763 162.347 138.686 164.575 140.329 166.218C141.973 167.861 144.201 168.785 146.525 168.786H219.53C220.68 168.786 221.818 168.559 222.88 168.118C223.942 167.678 224.906 167.032 225.718 166.218C226.53 165.404 227.173 164.438 227.612 163.375C228.049 162.312 228.273 161.173 228.27 160.023V129.125C228.273 127.976 228.049 126.837 227.612 125.773C227.173 124.711 226.53 123.744 225.718 122.93C224.906 122.116 223.942 121.471 222.88 121.03C221.818 120.589 220.68 120.363 219.53 120.363ZM178.654 155.741C178.655 156.551 178.496 157.353 178.187 158.102C177.877 158.851 177.423 159.531 176.851 160.105C176.279 160.678 175.599 161.134 174.851 161.444C174.102 161.755 173.3 161.915 172.49 161.916H150.872C149.236 161.913 147.668 161.262 146.512 160.104C145.356 158.946 144.707 157.377 144.708 155.741V133.446C144.708 132.636 144.867 131.834 145.176 131.085C145.486 130.337 145.939 129.657 146.512 129.084C147.084 128.511 147.764 128.056 148.512 127.746C149.26 127.435 150.062 127.275 150.872 127.275H172.49C173.3 127.275 174.102 127.434 174.85 127.744C175.599 128.055 176.279 128.509 176.851 129.082C177.423 129.656 177.877 130.336 178.187 131.085C178.496 131.833 178.655 132.636 178.654 133.446V155.741ZM221.103 155.771C221.104 156.581 220.946 157.384 220.636 158.132C220.327 158.881 219.873 159.562 219.301 160.135C218.729 160.709 218.049 161.164 217.301 161.474C216.552 161.785 215.75 161.945 214.94 161.946H193.28C192.469 161.945 191.667 161.785 190.918 161.474C190.17 161.164 189.49 160.709 188.917 160.136C188.344 159.562 187.89 158.882 187.58 158.133C187.271 157.384 187.112 156.581 187.112 155.771V133.419C187.112 132.609 187.271 131.806 187.58 131.057C187.89 130.308 188.344 129.628 188.917 129.054C189.49 128.481 190.17 128.026 190.918 127.716C191.667 127.405 192.469 127.245 193.28 127.244H214.94C215.75 127.245 216.552 127.405 217.301 127.716C218.049 128.026 218.729 128.481 219.301 129.055C219.873 129.628 220.327 130.309 220.636 131.058C220.946 131.807 221.104 132.609 221.103 133.419V155.771Z" stroke="#CCDDE2" stroke-width="2.52424" stroke-miterlimit="10"/>
<path d="M178.656 133.446V155.741C178.657 156.551 178.499 157.354 178.189 158.103C177.88 158.851 177.426 159.532 176.854 160.106C176.282 160.679 175.602 161.134 174.854 161.445C174.105 161.755 173.303 161.916 172.493 161.916H150.875C149.239 161.914 147.67 161.262 146.514 160.105C145.359 158.947 144.71 157.377 144.711 155.741V133.446C144.711 132.637 144.869 131.834 145.179 131.086C145.488 130.338 145.942 129.657 146.515 129.084C147.087 128.511 147.767 128.056 148.515 127.746C149.263 127.436 150.065 127.276 150.875 127.275H172.493C173.303 127.275 174.105 127.435 174.853 127.745C175.602 128.055 176.281 128.51 176.854 129.083C177.426 129.656 177.88 130.336 178.189 131.085C178.499 131.834 178.657 132.636 178.656 133.446Z" stroke="#CCDDE2" stroke-width="2.52424" stroke-miterlimit="10"/>
<path d="M221.104 133.419V155.771C221.105 156.581 220.947 157.383 220.637 158.132C220.328 158.881 219.874 159.562 219.302 160.135C218.73 160.709 218.05 161.164 217.302 161.474C216.553 161.785 215.751 161.945 214.941 161.946H193.281C192.47 161.945 191.668 161.785 190.919 161.474C190.171 161.164 189.491 160.709 188.918 160.135C188.346 159.562 187.891 158.881 187.582 158.132C187.272 157.384 187.113 156.581 187.113 155.771V133.419C187.113 132.609 187.272 131.806 187.582 131.057C187.891 130.308 188.346 129.628 188.918 129.054C189.491 128.481 190.171 128.026 190.919 127.715C191.668 127.405 192.47 127.244 193.281 127.244H214.941C215.751 127.244 216.553 127.405 217.302 127.715C218.05 128.026 218.73 128.481 219.302 129.054C219.874 129.628 220.328 130.308 220.637 131.057C220.947 131.806 221.105 132.609 221.104 133.419Z" stroke="#CCDDE2" stroke-width="2.52424" stroke-miterlimit="10"/>
<path d="M221.104 133.419V155.771C221.105 156.581 220.947 157.383 220.637 158.132C220.328 158.881 219.874 159.562 219.302 160.135C218.73 160.709 218.05 161.164 217.302 161.474C216.553 161.785 215.751 161.945 214.941 161.946H193.281C192.47 161.945 191.668 161.785 190.919 161.474C190.171 161.164 189.491 160.709 188.918 160.135C188.346 159.562 187.891 158.881 187.582 158.132C187.272 157.384 187.113 156.581 187.113 155.771V133.419C187.113 132.609 187.272 131.806 187.582 131.057C187.891 130.308 188.346 129.628 188.918 129.054C189.491 128.481 190.171 128.026 190.919 127.715C191.668 127.405 192.47 127.244 193.281 127.244H214.941C215.751 127.244 216.553 127.405 217.302 127.715C218.05 128.026 218.73 128.481 219.302 129.054C219.874 129.628 220.328 130.308 220.637 131.057C220.947 131.806 221.105 132.609 221.104 133.419Z" stroke="#CCDDE2" stroke-width="2.52424" stroke-miterlimit="10"/>
<path d="M178.656 133.446V155.741C178.657 156.551 178.499 157.354 178.189 158.103C177.88 158.851 177.426 159.532 176.854 160.106C176.282 160.679 175.602 161.134 174.854 161.445C174.105 161.755 173.303 161.916 172.493 161.916H150.875C149.239 161.914 147.67 161.262 146.514 160.105C145.359 158.947 144.71 157.377 144.711 155.741V133.446C144.711 132.637 144.869 131.834 145.179 131.086C145.488 130.338 145.942 129.657 146.515 129.084C147.087 128.511 147.767 128.056 148.515 127.746C149.263 127.436 150.065 127.276 150.875 127.275H172.493C173.303 127.275 174.105 127.435 174.853 127.745C175.602 128.055 176.281 128.51 176.854 129.083C177.426 129.656 177.88 130.336 178.189 131.085C178.499 131.834 178.657 132.636 178.656 133.446Z" stroke="#CCDDE2" stroke-width="2.52424" stroke-miterlimit="10"/>
<path d="M220.971 221.284V279.169H145.762V221.284C145.768 218.963 146.693 216.74 148.336 215.102C149.979 213.464 152.205 212.544 154.525 212.544H212.209C214.529 212.543 216.755 213.462 218.398 215.101C220.041 216.74 220.966 218.963 220.971 221.284Z" stroke="#CCDDE2" stroke-width="2.52424" stroke-miterlimit="10"/>
<path d="M155.249 180.456V187.873C155.249 187.995 155.226 188.116 155.18 188.229C155.133 188.342 155.065 188.444 154.979 188.53C154.892 188.616 154.79 188.685 154.677 188.731C154.565 188.777 154.444 188.801 154.322 188.801H139.365C139.244 188.8 139.124 188.776 139.012 188.729C138.901 188.682 138.8 188.613 138.715 188.527C138.629 188.441 138.562 188.339 138.517 188.227C138.471 188.115 138.448 187.995 138.449 187.873V180.456C138.449 180.213 138.546 179.98 138.718 179.808C138.889 179.637 139.122 179.54 139.365 179.54H154.322C154.443 179.539 154.563 179.562 154.675 179.608C154.787 179.653 154.89 179.72 154.976 179.805C155.062 179.89 155.13 179.992 155.177 180.103C155.224 180.215 155.249 180.335 155.249 180.456Z" stroke="#CCDDE2" stroke-width="2.52424" stroke-miterlimit="10"/>
<path d="M174.987 180.456V187.873C174.986 188.119 174.888 188.354 174.714 188.528C174.54 188.702 174.305 188.799 174.06 188.801H159.103C158.981 188.801 158.86 188.777 158.748 188.731C158.635 188.685 158.533 188.616 158.446 188.53C158.36 188.444 158.292 188.342 158.245 188.229C158.199 188.116 158.175 187.995 158.176 187.873V180.456C158.176 180.335 158.201 180.215 158.248 180.103C158.294 179.992 158.363 179.89 158.449 179.805C158.535 179.72 158.637 179.653 158.75 179.608C158.862 179.562 158.982 179.539 159.103 179.54H174.06C174.304 179.54 174.538 179.636 174.711 179.808C174.885 179.979 174.984 180.212 174.987 180.456Z" stroke="#CCDDE2" stroke-width="2.52424" stroke-miterlimit="10"/>
<path d="M194.71 180.456V187.873C194.71 187.995 194.687 188.116 194.64 188.229C194.594 188.342 194.526 188.444 194.439 188.53C194.353 188.616 194.251 188.685 194.138 188.731C194.026 188.777 193.905 188.801 193.783 188.801H178.83C178.709 188.8 178.588 188.776 178.477 188.729C178.365 188.682 178.263 188.614 178.178 188.527C178.093 188.442 178.025 188.339 177.979 188.227C177.933 188.115 177.91 187.995 177.91 187.873V180.456C177.91 180.335 177.934 180.216 177.98 180.104C178.026 179.993 178.094 179.892 178.18 179.807C178.265 179.722 178.367 179.654 178.478 179.609C178.59 179.563 178.709 179.54 178.83 179.54H193.783C193.904 179.539 194.024 179.562 194.136 179.608C194.248 179.653 194.35 179.72 194.437 179.805C194.523 179.89 194.591 179.992 194.638 180.103C194.685 180.215 194.71 180.335 194.71 180.456Z" stroke="#CCDDE2" stroke-width="2.52424" stroke-miterlimit="10"/>
<path d="M214.421 180.456V187.873C214.422 187.995 214.399 188.115 214.354 188.227C214.308 188.339 214.241 188.441 214.156 188.527C214.071 188.613 213.969 188.682 213.858 188.729C213.746 188.776 213.627 188.8 213.506 188.801H198.564C198.442 188.801 198.321 188.777 198.209 188.731C198.096 188.685 197.994 188.616 197.907 188.53C197.821 188.444 197.753 188.342 197.706 188.229C197.66 188.116 197.636 187.995 197.637 187.873V180.456C197.637 180.335 197.662 180.215 197.709 180.103C197.756 179.992 197.824 179.89 197.91 179.805C197.996 179.72 198.098 179.653 198.211 179.608C198.323 179.562 198.443 179.539 198.564 179.54H213.521C213.761 179.544 213.99 179.642 214.158 179.814C214.327 179.985 214.421 180.216 214.421 180.456Z" stroke="#CCDDE2" stroke-width="2.52424" stroke-miterlimit="10"/>
<path d="M165.659 193.415V200.84C165.657 201.084 165.558 201.318 165.384 201.49C165.211 201.662 164.976 201.759 164.732 201.759H149.775C149.53 201.759 149.296 201.662 149.122 201.49C148.948 201.318 148.85 201.084 148.848 200.84V193.415C148.851 193.171 148.949 192.938 149.123 192.766C149.297 192.595 149.531 192.499 149.775 192.499H164.732C164.976 192.499 165.21 192.595 165.383 192.766C165.557 192.938 165.656 193.171 165.659 193.415Z" stroke="#CCDDE2" stroke-width="2.52424" stroke-miterlimit="10"/>
<path d="M184.4 192.499H169.431C168.926 192.499 168.516 192.909 168.516 193.415V200.844C168.516 201.349 168.926 201.759 169.431 201.759H184.4C184.905 201.759 185.315 201.349 185.315 200.844V193.415C185.315 192.909 184.905 192.499 184.4 192.499Z" stroke="#CCDDE2" stroke-width="2.52424" stroke-miterlimit="10"/>
<path d="M228.281 107.051C228.277 108.206 227.816 109.313 226.999 110.13C226.182 110.947 225.074 111.407 223.919 111.41H142.808C141.652 111.409 140.544 110.949 139.727 110.132C138.91 109.315 138.45 108.207 138.449 107.051C138.453 105.896 138.914 104.79 139.73 103.974C140.547 103.157 141.653 102.696 142.808 102.693H223.919C224.492 102.691 225.059 102.804 225.589 103.022C226.118 103.241 226.599 103.562 227.004 103.967C227.41 104.371 227.731 104.852 227.95 105.382C228.169 105.911 228.282 106.478 228.281 107.051Z" stroke="#CCDDE2" stroke-width="2.52424" stroke-miterlimit="10"/>
<path d="M211.974 219.238H154.537C153.175 219.238 152.07 220.342 152.07 221.704V221.799C152.07 223.161 153.175 224.266 154.537 224.266H211.974C213.335 224.266 214.44 223.161 214.44 221.799V221.704C214.44 220.342 213.335 219.238 211.974 219.238Z" stroke="#CCDDE2" stroke-width="2.52424" stroke-miterlimit="10"/>
<path d="M211.974 229.613H154.537C153.175 229.613 152.07 230.717 152.07 232.079V232.174C152.07 233.536 153.175 234.64 154.537 234.64H211.974C213.335 234.64 214.44 233.536 214.44 232.174V232.079C214.44 230.717 213.335 229.613 211.974 229.613Z" stroke="#CCDDE2" stroke-width="2.52424" stroke-miterlimit="10"/>
<path d="M211.974 239.987H154.537C153.175 239.987 152.07 241.091 152.07 242.453V242.548C152.07 243.91 153.175 245.014 154.537 245.014H211.974C213.335 245.014 214.44 243.91 214.44 242.548V242.453C214.44 241.091 213.335 239.987 211.974 239.987Z" stroke="#CCDDE2" stroke-width="2.52424" stroke-miterlimit="10"/>
<path d="M211.974 250.364H154.537C153.175 250.364 152.07 251.468 152.07 252.83V252.925C152.07 254.287 153.175 255.391 154.537 255.391H211.974C213.335 255.391 214.44 254.287 214.44 252.925V252.83C214.44 251.468 213.335 250.364 211.974 250.364Z" stroke="#CCDDE2" stroke-width="2.52424" stroke-miterlimit="10"/>
<path d="M211.974 260.738H154.537C153.175 260.738 152.07 261.842 152.07 263.205V263.3C152.07 264.662 153.175 265.766 154.537 265.766H211.974C213.335 265.766 214.44 264.662 214.44 263.3V263.205C214.44 261.842 213.335 260.738 211.974 260.738Z" stroke="#CCDDE2" stroke-width="2.52424" stroke-miterlimit="10"/>
<path d="M115 73.52H261.71C264.01 73.52 266.216 74.4335 267.842 76.0599C269.468 77.6859 270.382 79.8918 270.382 82.1916V90.5516H106.328V82.1916C106.328 79.8918 107.242 77.6859 108.868 76.0599C110.494 74.4335 112.7 73.52 115 73.52Z" stroke="#CCDDE2" stroke-width="2.52424" stroke-miterlimit="10"/>
<path d="M254.723 208.917H270.496V223.27H285.465V239.754H300.041V252.663H314.386V264.021H344V279.16H254.723V208.917Z" stroke="#CCDDE2" stroke-width="2.52424" stroke-miterlimit="10"/>
<path d="M257.699 177.138H270.6H270.992L285.489 191.639L300.103 206.25L314.391 220.538L321.148 227.295" stroke="#CCDDE2" stroke-width="2.52424" stroke-miterlimit="10"/>
<path d="M270.598 223.27V177.138" stroke="#CCDDE2" stroke-width="2.52424" stroke-miterlimit="10"/>
<path d="M314.391 252.668V220.539" stroke="#CCDDE2" stroke-width="2.52424" stroke-miterlimit="10"/>
<path d="M285.488 229.73V191.635" stroke="#CCDDE2" stroke-width="2.52424" stroke-miterlimit="10"/>
<path d="M300.039 206.25V241.016" stroke="#CCDDE2" stroke-width="2.52424" stroke-miterlimit="10"/>
<path d="M125.551 247.609V257.348" stroke="#CCDDE2" stroke-width="2.52424" stroke-miterlimit="10"/>
<path d="M111.117 257.349V251.36C111.729 253.116 113.374 254.647 115.495 255.404C114.807 250.388 113.462 242.484 111.117 235.412" stroke="#CCDDE2" stroke-width="2.52424" stroke-miterlimit="10"/>
<path d="M125.55 228.104V144.58H111.117V224.35" stroke="#CCDDE2" stroke-width="2.52424" stroke-miterlimit="10"/>
<path d="M111.117 251.368V257.349" stroke="#CCDDE2" stroke-width="2.52424" stroke-miterlimit="10"/>
<path d="M111.117 224.35V144.58H21.2773V279.168H109.95H111.117" stroke="#CCDDE2" stroke-width="2.52424" stroke-miterlimit="10"/>
<path d="M48.6016 164.291V216.879C48.6016 221.624 52.4483 225.471 57.1934 225.471H77.3334C82.0784 225.471 85.9252 221.624 85.9252 216.879V164.291C85.9252 159.546 82.0784 155.699 77.3334 155.699H57.1934C52.4483 155.699 48.6016 159.546 48.6016 164.291Z" stroke="#CCDDE2" stroke-width="2.52424" stroke-miterlimit="10"/>
<path d="M53.9102 167.285V181.391C53.9102 184.734 56.6203 187.444 59.9636 187.444H74.6012C77.9444 187.444 80.6546 184.734 80.6546 181.391V167.285C80.6546 163.942 77.9444 161.232 74.6012 161.232H59.9636C56.6203 161.232 53.9102 163.942 53.9102 167.285Z" stroke="#CCDDE2" stroke-width="2.52424" stroke-miterlimit="10"/>
<path d="M53.9336 200V214.063C53.9336 217.407 56.6438 220.117 59.987 220.117H74.579C77.9222 220.117 80.6324 217.407 80.6324 214.063V200C80.6324 196.656 77.9222 193.946 74.579 193.946H59.987C56.6438 193.946 53.9336 196.656 53.9336 200Z" stroke="#CCDDE2" stroke-width="2.52424" stroke-miterlimit="10"/>
<path d="M50.0126 233.432H35.0254C34.5238 233.432 34.1172 233.838 34.1172 234.34V241.788C34.1172 242.289 34.5238 242.696 35.0254 242.696H50.0126C50.5142 242.696 50.9208 242.289 50.9208 241.788V234.34C50.9208 233.838 50.5142 233.432 50.0126 233.432Z" stroke="#CCDDE2" stroke-width="2.52424" stroke-miterlimit="10"/>
<path d="M69.7431 233.432H54.7559C54.2543 233.432 53.8477 233.838 53.8477 234.34V241.788C53.8477 242.289 54.2543 242.696 54.7559 242.696H69.7431C70.2447 242.696 70.6513 242.289 70.6513 241.788V234.34C70.6513 233.838 70.2447 233.432 69.7431 233.432Z" stroke="#CCDDE2" stroke-width="2.52424" stroke-miterlimit="10"/>
<path d="M89.4735 233.432H74.4863C73.9847 233.432 73.5781 233.838 73.5781 234.34V241.788C73.5781 242.289 73.9847 242.696 74.4863 242.696H89.4735C89.9751 242.696 90.3817 242.289 90.3817 241.788V234.34C90.3817 233.838 89.9751 233.432 89.4735 233.432Z" stroke="#CCDDE2" stroke-width="2.52424" stroke-miterlimit="10"/>
<path d="M60.4188 246.393H45.4316C44.93 246.393 44.5234 246.8 44.5234 247.302V254.75C44.5234 255.251 44.93 255.658 45.4316 255.658H60.4188C60.9204 255.658 61.327 255.251 61.327 254.75V247.302C61.327 246.8 60.9204 246.393 60.4188 246.393Z" stroke="#CCDDE2" stroke-width="2.52424" stroke-miterlimit="10"/>
<path d="M80.079 246.393H65.0918C64.5902 246.393 64.1836 246.8 64.1836 247.302V254.75C64.1836 255.251 64.5902 255.658 65.0918 255.658H80.079C80.5806 255.658 80.9872 255.251 80.9872 254.75V247.302C80.9872 246.8 80.5806 246.393 80.079 246.393Z" stroke="#CCDDE2" stroke-width="2.52424" stroke-miterlimit="10"/>
<path d="M10.8388 127.415H125.599V144.435H2V136.257C2.00099 133.913 2.93244 131.665 4.5897 130.007C6.24696 128.349 8.49458 127.417 10.8388 127.415Z" stroke="#CCDDE2" stroke-width="2.52424" stroke-miterlimit="10"/>
<path d="M118.471 239.224C119.258 238.585 120.17 237.996 120.801 237.293C122.572 235.313 121.891 232.783 123.028 230.609C124.411 227.949 128.758 226.106 133.033 226.349C132.628 227.6 132.35 228.888 132.205 230.195C132.079 231.358 132.383 232.65 132.049 233.778C131.505 235.587 128.602 236.685 128.249 238.543C127.937 240.185 129.86 241.72 129.541 243.392C129.203 245.186 126.448 246.178 125.433 247.762C124.605 249.054 124.996 250.529 124.567 251.9C124.046 253.557 122.245 255.02 119.885 255.7L119.649 255.769C118.783 255.025 118.039 254.149 117.445 253.173" stroke="#CCDDE2" stroke-width="2.52424" stroke-miterlimit="10"/>
<path d="M130.44 228.431C124.068 234.933 121.07 248.639 119.903 255.707C119.808 256.304 119.721 256.847 119.648 257.345" stroke="#CCDDE2" stroke-width="2.52424" stroke-miterlimit="10"/>
<path d="M131.011 261.327L128.077 277.721C127.996 278.181 127.756 278.597 127.398 278.897C127.04 279.198 126.588 279.362 126.12 279.362H110.795C110.324 279.362 109.867 279.194 109.508 278.889C109.149 278.583 108.91 278.16 108.834 277.694L106.121 261.327H131.011Z" stroke="#CCDDE2" stroke-width="2.52424" stroke-miterlimit="10"/>
<path d="M133.795 259.5C133.754 259.998 133.528 260.462 133.16 260.801C132.793 261.139 132.312 261.327 131.812 261.327H105.36C104.865 261.328 104.388 261.143 104.021 260.81C103.655 260.477 103.427 260.019 103.38 259.526C103.354 259.25 103.385 258.972 103.473 258.708C103.56 258.445 103.702 258.203 103.888 257.998C104.075 257.793 104.301 257.628 104.555 257.516C104.809 257.404 105.083 257.345 105.36 257.345H131.797C132.073 257.343 132.347 257.399 132.601 257.508C132.855 257.618 133.083 257.779 133.271 257.982C133.459 258.185 133.602 258.424 133.693 258.686C133.783 258.947 133.818 259.224 133.795 259.5Z" stroke="#CCDDE2" stroke-width="2.52424" stroke-miterlimit="10"/>
<path d="M111.117 251.36C111.072 251.236 111.034 251.109 111.003 250.98C110.581 249.392 110.957 247.671 110.163 246.181C109.186 244.346 106.549 243.198 106.215 241.116C105.918 239.185 107.765 237.399 107.457 235.495C107.123 233.348 104.334 232.075 103.806 229.974C103.49 228.674 103.779 227.173 103.665 225.824C103.523 224.32 103.254 222.83 102.859 221.371C106.013 221.154 109.205 222.366 111.117 224.335C111.69 224.903 112.15 225.575 112.473 226.315C113.564 228.826 112.914 231.76 114.617 234.055C115.544 235.298 117.083 236.225 117.873 237.525C118.138 237.949 118.323 238.418 118.42 238.908C118.424 238.944 118.431 238.979 118.439 239.014C118.458 239.083 118.466 239.147 118.477 239.204C118.762 241.127 118.029 243.209 118.265 245.189C118.477 246.831 119.367 248.476 118.857 250.08C118.501 251.158 118.027 252.194 117.444 253.169C116.971 254.009 116.39 254.784 115.715 255.472C115.639 255.453 115.57 255.423 115.494 255.396C114.807 250.38 113.461 242.476 111.117 235.404" stroke="#CCDDE2" stroke-width="2.52424" stroke-miterlimit="10"/>
<path d="M115.745 257.34C115.677 256.755 115.589 256.117 115.494 255.41C114.807 250.394 113.461 242.49 111.117 235.418C109.639 230.915 107.754 226.731 105.375 223.805" stroke="#CCDDE2" stroke-width="2.52424" stroke-miterlimit="10"/>
<path d="M114.617 234.066C114.617 234.066 115.039 227.522 118.569 225.531C122.099 223.54 122.023 234.697 122.023 234.697" stroke="#CCDDE2" stroke-width="2.52424" stroke-miterlimit="10"/>
<path d="M118.47 239.223C118.071 236.739 118.257 234.197 119.013 231.798" stroke="#CCDDE2" stroke-width="2.52424" stroke-miterlimit="10"/>
<path d="M171.639 116.799C172.129 117.33 172.412 118.02 172.436 118.742C172.461 119.465 172.225 120.172 171.772 120.735L162.99 135.84L162.682 138.88L159.95 166.335L155.61 209.94C155.584 210.218 155.527 210.495 155.477 210.773C155.451 210.993 155.42 211.213 155.382 211.434C155.325 211.719 155.257 211.989 155.192 212.262C155.128 212.536 155.086 212.714 155.018 212.935C154.949 213.155 154.858 213.459 154.763 213.718L154.531 214.367C154.428 214.626 154.322 214.873 154.216 215.127C154.109 215.382 154.014 215.542 153.912 215.751C153.809 215.96 153.672 216.229 153.532 216.457C153.391 216.685 153.3 216.86 153.178 217.05C153.057 217.24 152.901 217.499 152.745 217.719C152.589 217.939 152.479 218.099 152.346 218.274C152.057 218.654 151.772 219.011 151.457 219.353C151.294 219.543 151.122 219.733 150.951 219.915C150.78 220.098 150.571 220.269 150.397 220.444C150.222 220.618 150.051 220.767 149.869 220.919C149.686 221.071 149.488 221.245 149.279 221.397C149.07 221.549 148.9 221.694 148.706 221.827C148.512 221.96 148.292 222.116 148.083 222.26C147.874 222.404 147.672 222.515 147.463 222.64C147.254 222.765 147.03 222.891 146.813 223.02C146.597 223.149 146.372 223.24 146.144 223.343C145.916 223.446 145.704 223.563 145.476 223.658C145.248 223.753 144.986 223.852 144.739 223.936C144.492 224.019 144.298 224.107 144.077 224.175C143.659 224.308 143.23 224.422 142.797 224.521C142.55 224.578 142.31 224.624 142.063 224.662C141.816 224.7 141.585 224.757 141.338 224.798H141.375L144.765 232.018L147.938 232.049C146.914 232.194 145.878 232.239 144.845 232.182L149.869 242.894C150.675 244.612 151.035 246.506 150.915 248.399C150.795 250.293 150.199 252.126 149.181 253.728C148.165 255.331 146.759 256.65 145.096 257.565C143.434 258.479 141.567 258.959 139.669 258.96H133.589C133.354 258.961 133.121 259.008 132.904 259.098C132.686 259.189 132.489 259.322 132.324 259.489C132.157 259.655 132.026 259.853 131.937 260.072C131.848 260.289 131.802 260.522 131.803 260.758V261.647C133.878 262.35 135.637 263.768 136.764 265.647C137.891 267.526 138.314 269.745 137.958 271.907C137.601 274.069 136.488 276.035 134.818 277.452C133.147 278.87 131.027 279.648 128.836 279.648C126.644 279.648 124.524 278.87 122.853 277.452C121.183 276.035 120.07 274.069 119.713 271.907C119.357 269.745 119.78 267.526 120.907 265.647C122.034 263.768 123.793 262.35 125.868 261.647V260.758C125.868 260.522 125.822 260.288 125.732 260.07C125.642 259.852 125.511 259.654 125.344 259.487C125.177 259.32 124.979 259.188 124.762 259.097C124.543 259.007 124.31 258.96 124.074 258.96H56.9851C56.7491 258.96 56.5158 259.007 56.2977 259.097C56.08 259.188 55.882 259.32 55.7155 259.487C55.5487 259.654 55.4168 259.852 55.3268 260.07C55.2371 260.288 55.1911 260.522 55.1915 260.758V261.647C57.2701 262.35 59.031 263.77 60.1604 265.651C61.2897 267.532 61.7142 269.754 61.3574 271.919C61.0009 274.084 59.8868 276.052 58.214 277.472C56.5409 278.893 54.4182 279.672 52.2237 279.672C50.0292 279.672 47.9065 278.893 46.2334 277.472C44.5606 276.052 43.4465 274.084 43.09 271.919C42.7332 269.754 43.1577 267.532 44.287 265.651C45.4164 263.77 47.1773 262.35 49.2559 261.647V260.758C49.2559 260.281 49.0667 259.824 48.7296 259.487C48.3926 259.15 47.935 258.96 47.4585 258.96H37.0313C36.5514 258.959 36.0828 258.816 35.6846 258.548C35.286 258.281 34.9759 257.902 34.7931 257.458C34.61 257.014 34.5624 256.527 34.6567 256.056C34.7505 255.586 34.982 255.154 35.3213 254.815C35.5455 254.59 35.8119 254.411 36.1056 254.29C36.399 254.169 36.7136 254.107 37.0313 254.108H137.484C138.752 254.106 140 253.786 141.111 253.175C142.222 252.565 143.162 251.685 143.844 250.616C144.525 249.546 144.926 248.323 145.01 247.058C145.094 245.792 144.859 244.526 144.324 243.377L135.687 224.738L49.1191 217.738C49.053 217.722 48.9853 217.713 48.9177 217.708C48.5377 217.67 48.1577 217.62 47.7777 217.556C47.65 217.539 47.5231 217.516 47.3977 217.487C46.9683 217.411 46.5579 217.316 46.1437 217.21L45.7903 217.107C45.4103 216.989 45.0303 216.868 44.6503 216.727L44.3539 216.613C44.0081 216.48 43.6661 216.328 43.3317 216.165C43.19 216.106 43.0516 216.038 42.9175 215.963C42.6135 215.811 42.3095 215.648 42.0131 215.466C39.5188 214 37.4508 211.908 36.0141 209.397C34.5769 206.886 33.8207 204.044 33.8203 201.151V163.626C33.8211 159.623 35.2651 155.755 37.8871 152.73C40.5095 149.706 44.1343 147.728 48.0969 147.161L156.53 131.581L167.212 116.787C167.497 116.486 167.84 116.246 168.221 116.083C168.603 115.919 169.013 115.836 169.427 115.836C169.842 115.838 170.252 115.923 170.632 116.089C171.013 116.254 171.355 116.496 171.639 116.799Z" fill="white"/>
<path d="M295.043 244.732C288.032 230.186 273.6 204.221 253.779 188.538L251.848 153.696C253.311 153.624 254.759 153.368 256.158 152.936C257.746 152.677 258.818 152.275 259.198 151.682C259.49 151.189 259.694 150.649 259.802 150.086C260.12 149.392 260.271 148.633 260.243 147.87C260.243 147.49 260.212 147.038 260.205 146.578C260.345 142.748 259.973 137.242 259.524 130.706C259.065 121.282 258.552 112.086 258.54 112.002V111.983C258.54 111.85 258.597 103.593 258.981 94.4766C259.475 99.6484 261.618 102.886 264.426 104.873C267.466 107.378 271.453 108.058 274.873 108.058C277.373 108.053 279.862 107.724 282.279 107.081C286.349 105.812 289.697 103.787 292.182 100.899C294.462 98.7022 296.362 95.9016 296.882 92.4588C297.356 89.6738 297.206 86.8185 296.441 84.0988C295.77 80.9357 293.976 78.1226 291.391 76.1796C290.784 75.6659 290.113 75.2319 289.396 74.8876C288.192 74.1884 286.949 73.512 285.771 72.7368C284.181 71.6249 282.796 70.2452 281.678 68.6594C280.942 67.304 280.494 65.811 280.36 64.2742C280.48 61.707 280.444 59.1347 280.253 56.5716C280.253 56.0358 280.197 55.5 280.139 54.9756C279.995 53.1402 279.862 51.871 279.862 51.871C278.303 47.8556 275.639 44.363 272.178 41.7972C271.966 41.6262 271.749 41.4628 271.536 41.2994C268.499 39.0818 264.972 37.6298 261.253 37.0662C260.911 37.0168 260.566 36.9788 260.231 36.9522C259.134 36.7733 258.025 36.6745 256.914 36.6558C255.494 36.0611 254.274 35.0724 253.399 33.8058C252.631 32.4082 252.086 30.8992 251.784 29.3332C251.354 26.772 251.316 23.6978 251.104 20.1524C251.137 16.5922 250.21 13.0886 248.421 10.0102C248.413 9.9863 248.4 9.96426 248.383 9.94564C247.619 8.66276 246.693 7.48399 245.628 6.43823C242.561 2.80543 238.29 0.533038 232.978 1.85924C232.928 1.85924 232.879 1.88963 232.822 1.90863C232.601 1.90863 232.385 1.90864 232.164 1.94664C232.158 1.94474 232.152 1.94474 232.146 1.94664C230.067 2.11954 228.052 2.753 226.248 3.80104C225.584 4.18598 224.957 4.63096 224.374 5.13104C220.859 8.17104 218.842 12.8716 218.295 17.5266C218.268 17.7166 218.257 17.9066 218.249 18.0966C217.633 18.8388 217.269 19.7565 217.208 20.7186C217.148 21.6542 217.36 22.5875 217.819 23.4049C218.279 24.2222 218.965 24.8891 219.796 25.3242V25.5636C219.854 27.2071 220.214 28.8263 220.856 30.3402C221.935 32.9014 223.865 35.816 227.133 36.2834C227.251 36.2834 227.365 36.3024 227.468 36.3214L229.858 40.585L230.432 43.0588L231.762 48.793L232.218 48.5346C232.746 48.2382 233.27 47.9456 233.814 47.6568L234.16 48.2876C232.117 49.455 230.168 50.7759 228.326 52.2396C223.626 55.785 217.854 61.2038 213.791 68.6176C211.401 72.7672 209.71 77.2778 209.186 82.0658C209.183 82.1297 209.176 82.1928 209.167 82.2558C209.098 82.6852 209.041 83.1146 208.996 83.5554V81.4616C208.912 81.4616 208.833 81.4236 208.749 81.416V81.378C208.456 81.3355 208.165 81.2773 207.879 81.2032L185.975 68.1616C184.992 67.28 184.281 66.1355 183.927 64.8632C183.32 62.4103 181.948 60.2143 180.009 58.5932C178.354 57.3046 176.404 56.4481 174.336 56.1004C174.211 56.07 174.078 56.051 173.956 56.032C174.04 55.8489 174.083 55.6501 174.084 55.4487C174.085 55.2473 174.042 55.0482 173.96 54.8647C173.877 54.6808 173.757 54.5166 173.606 54.3832C173.456 54.2498 173.278 54.1499 173.086 54.0902L156.898 48.9792C156.56 48.8717 156.194 48.8945 155.872 49.0427C155.55 49.1913 155.295 49.4546 155.157 49.781L151.43 58.6008C151.354 58.7832 151.316 58.9793 151.321 59.1769C151.325 59.3741 151.37 59.5687 151.454 59.7477C151.538 59.9266 151.658 60.0859 151.807 60.2155C151.956 60.3454 152.13 60.4427 152.319 60.5008L152.741 60.6338V60.6718L162.309 63.6396L162.484 63.6966C162.484 63.8866 162.484 64.0766 162.503 64.2666C162.529 65.1744 162.624 66.0789 162.788 66.9722C162.856 67.3522 162.94 67.7322 163.035 68.1122C163.092 68.3212 163.141 68.5226 163.217 68.724L163.248 68.8304C163.305 69.009 163.362 69.2104 163.438 69.3814C163.456 69.4525 163.479 69.522 163.506 69.5904C163.512 69.5927 163.519 69.5927 163.525 69.5904C163.762 70.2049 164.06 70.7943 164.414 71.3498C165.249 72.6532 166.468 73.6652 167.903 74.2454C169.259 74.7774 170.711 74.6748 172.083 75.2182C173.139 75.6598 174.107 76.2879 174.94 77.0726L175.457 77.635C175.18 78.0492 172.687 81.8986 174.484 83.1108L174.416 83.1412L176.232 84.2812L198.519 98.9986C198.74 99.1696 198.968 99.333 199.188 99.4926L197.584 101.26C193.161 102.825 187.94 104.535 183.802 105.721C181.32 106.352 178.816 106.906 176.293 107.355C172.421 108.024 168.473 108.054 164.623 108.711C161.823 109.171 159.451 111.782 158.923 114.704C158.482 117.083 158.376 119.644 161.006 120.868C164.015 122.266 165.516 117.983 167.34 116.463C170.152 114.085 172.949 116.923 175.875 118.538C176.141 120.104 176.601 121.612 176.954 123.151C177.047 123.697 177.259 124.216 177.574 124.671C178.109 125.359 178.672 125.431 179.17 125.177L179.044 125.283C180.002 125.03 180.967 124.777 181.94 124.523C182.852 124.381 183.751 124.164 184.626 123.873C191.155 122.323 198.113 120.879 205.071 119.131H205.097C205.424 119.047 205.758 118.96 206.081 118.884C206.19 118.881 206.298 118.898 206.4 118.937C206.502 118.975 206.594 119.033 206.674 119.108C206.753 119.183 206.816 119.272 206.861 119.371C206.905 119.47 206.929 119.577 206.932 119.686C206.894 120.184 206.845 120.689 206.799 121.206C206.294 123.433 205.462 129.444 204.519 134.297C204.003 136.448 203.467 138.454 202.95 140.232C202.11 142.132 201.289 144.006 201.548 145.552C201.576 146.242 201.843 146.901 202.304 147.415C202.764 147.929 203.389 148.268 204.071 148.372L205.272 148.554C206.096 148.752 207.491 148.991 209.239 149.242C209.478 150.941 209.737 152.662 210.022 154.334L210.09 154.756C210.292 155.862 210.501 156.99 210.71 158.108V158.138V158.176L210.881 159.092L211.063 160.08L209.676 172.369L209.262 176.12L198.713 269.14L187.617 272.092L179.303 274.312C178.999 274.376 178.711 274.496 178.451 274.665C178.065 274.906 177.748 275.243 177.529 275.642C177.31 276.041 177.197 276.49 177.201 276.945C177.202 277.391 177.317 277.829 177.536 278.218C177.655 278.448 177.806 278.66 177.984 278.849C178.352 279.212 178.816 279.461 179.322 279.567C179.51 279.611 179.702 279.633 179.895 279.632H212.302L214.962 269.147L230.846 206.295L231.678 207.055C231.678 207.055 231.678 207.086 231.708 207.093V207.112L256.066 230.27L256.355 230.524L256.735 230.904L261.808 235.719L262.188 236.072L262.34 236.224C281.283 254.525 281.96 256.915 281.538 257.166H281.298L272.558 275.3C272.286 275.869 272.221 276.516 272.374 277.129C272.528 277.741 272.89 278.281 273.398 278.655L274.01 279.103C274.56 279.501 275.239 279.676 275.913 279.594C276.586 279.513 277.204 279.18 277.643 278.663L299.831 252.728C299.831 252.728 298.186 251.211 295.043 244.732ZM179.838 124.607C179.953 124.467 180.059 124.32 180.154 124.166C180.158 124.214 180.175 124.26 180.203 124.299L179.838 124.607ZM198.645 100.88C198.77 100.823 198.892 100.773 199.025 100.724L200.336 100.211L200.393 100.237C199.83 100.446 199.245 100.667 198.645 100.88ZM207.541 81.1196C206.406 80.7643 205.361 80.1708 204.474 79.3792L203.262 78.6534L207.753 81.1576C207.677 81.1614 207.609 81.1614 207.541 81.1424V81.1196Z" fill="white"/>
<path d="M201.559 100.466L200.898 100.219C200.851 100.194 200.805 100.166 200.762 100.135C197.307 97.9008 194.609 94.7468 192.303 91.3952C189.871 87.8574 181.526 84.217 178.828 80.8654C177.099 78.745 175.29 76.3054 172.641 75.249C171.277 74.7132 169.818 74.8158 168.461 74.2762C167.025 73.6994 165.807 72.6863 164.977 71.3806C164.617 70.8239 164.315 70.2319 164.076 69.6136C164.047 69.5429 164.023 69.4707 164.004 69.397C163.915 69.1823 163.843 68.9611 163.788 68.7358C163.715 68.5306 163.662 68.333 163.609 68.124C163.505 67.7489 163.422 67.3682 163.362 66.984C163.22 66.1248 163.13 65.258 163.092 64.3886V64.3468C163.062 63.4652 163.073 62.5988 163.115 61.7514V61.7286H163.073L159.193 60.3644C158.658 60.1873 158.18 59.8689 157.811 59.4429C157.442 59.0169 157.194 58.4986 157.096 57.9438C157.043 57.6345 157.053 57.3176 157.126 57.0128C157.215 56.6096 157.39 56.2308 157.64 55.9028C157.89 55.5745 158.209 55.3051 158.574 55.1128C158.911 54.9338 159.281 54.8267 159.662 54.7982C160.043 54.7693 160.425 54.8194 160.785 54.9456L168.595 57.7804L170.198 58.358L170.24 58.3808C170.24 58.3808 170.24 56.002 172.52 56.0514C174.629 56.1046 182.271 56.724 184.535 65.0802C184.889 66.3505 185.6 67.4928 186.584 68.371L205.044 79.4252C206.299 80.5625 207.874 81.2857 209.555 81.4962V83.8408C209.552 83.8427 209.55 83.8454 209.549 83.8484C209.547 83.8514 209.547 83.8545 209.547 83.8579C209.547 83.8609 209.547 83.864 209.549 83.867C209.55 83.8701 209.552 83.8727 209.555 83.875V85.5812L211.021 95.8602L212.055 103.046C210.706 103.156 209.35 103.107 208.012 102.902L207.134 102.571H207.111L201.559 100.466Z" fill="white"/>
<path d="M209.313 83.7188V83.7492C208.876 87.5986 208.443 92.0674 208.101 97.0112C205.639 98.1512 203.127 99.1392 200.657 100.123C200.61 100.098 200.564 100.071 200.52 100.04C198.842 98.9375 197.301 97.639 195.93 96.1714L174.977 83.1678C176.273 82.512 177.428 81.6083 178.378 80.5078L178.442 80.4432C182.39 76.2024 185.814 69.0432 186.24 68.1464L186.331 68.2414L204.791 79.2956C206.046 80.4322 207.622 81.1542 209.302 81.3628L209.313 83.7188Z" fill="#2E2E2E"/>
<path d="M172.144 61.9068L171.722 63.0468L171.32 64.1526L171.099 64.7796L171.069 64.8746L171.027 64.9886C170.928 65.2736 170.72 65.5077 170.448 65.6396C170.177 65.771 169.865 65.79 169.579 65.6916L162.899 63.6396H162.868L153.27 60.6908L155.762 54.797L156.861 52.2016C157.001 51.8752 157.257 51.6126 157.58 51.4652C157.904 51.3174 158.27 51.2957 158.609 51.4036L171.836 55.5836C171.408 55.486 170.972 55.4236 170.533 55.3974C170.221 55.3788 169.909 55.4297 169.619 55.546C169.33 55.6623 169.07 55.8413 168.857 56.07C168.656 56.2984 168.511 56.5709 168.434 56.865C168.357 57.1591 168.349 57.4673 168.413 57.7648C168.611 58.5286 169.003 59.2278 169.553 59.794C169.606 59.8548 169.659 59.908 169.72 59.9688C170.211 60.5137 170.78 60.9834 171.407 61.3634C171.407 61.3634 171.426 61.3634 171.449 61.3938C171.668 61.5808 171.901 61.7522 172.144 61.9068Z" fill="#CA9F14"/>
<path d="M163.043 63.64C163.043 63.8452 163.043 64.0656 163.066 64.2708C163.093 65.1802 163.19 66.0857 163.355 66.9802C163.415 67.3644 163.498 67.7452 163.602 68.1202C163.655 68.3254 163.704 68.523 163.776 68.7282C163.849 68.9334 163.925 69.1842 164.016 69.4122C164.045 69.4966 164.079 69.579 164.118 69.6592" stroke="black" stroke-width="2.52424" stroke-miterlimit="10"/>
<path d="M175.185 62.6714C174.805 62.6106 174.425 62.5384 174.045 62.4434C173.665 62.3484 173.383 62.2458 173.064 62.1242C172.555 61.9258 172.067 61.6792 171.605 61.387C171.605 61.387 171.575 61.387 171.563 61.3566C170.869 60.9325 170.245 60.4028 169.713 59.7872C169.163 59.2214 168.77 58.5218 168.573 57.758C168.503 57.4604 168.507 57.1507 168.585 56.8551C168.662 56.5598 168.811 56.2878 169.017 56.0632C169.23 55.8344 169.49 55.6558 169.78 55.5395C170.07 55.4233 170.381 55.3723 170.693 55.3906C171.278 55.4366 171.859 55.527 172.43 55.6604C173.247 55.8048 174.064 55.9378 174.873 56.105C176.941 56.4576 178.891 57.3134 180.55 58.5978C182.485 60.2204 183.856 62.4141 184.468 64.864C184.818 66.1355 185.524 67.28 186.505 68.1624L209.544 81.8804" stroke="black" stroke-width="2.52424" stroke-miterlimit="10"/>
<path d="M163.07 64.2663C163.07 64.2663 163.808 68.412 169.572 68.298C170.019 68.2817 170.45 68.1289 170.807 67.8607C171.165 67.592 171.431 67.2204 171.571 66.7959C171.711 66.3711 171.717 65.9139 171.59 65.4857C171.462 65.057 171.206 64.6782 170.857 64.3992L170.781 64.3422" stroke="black" stroke-width="2.52424" stroke-miterlimit="10"/>
<path d="M164 69.3784C164 69.3784 166.823 72.3158 169.639 71.0466C172.128 69.9066 170.426 67.676 170.426 67.676" stroke="black" stroke-width="2.52424" stroke-miterlimit="10"/>
<path d="M171.701 64.21L171.496 64.1492" stroke="black" stroke-width="2.52424" stroke-miterlimit="10"/>
<path d="M141.893 224.79C140.694 224.962 139.481 224.996 138.275 224.893L136.375 224.741L141.893 224.79Z" fill="#D7E8F0"/>
<path d="M163.249 138.899L156.162 209.959C155.79 213.673 154.181 217.153 151.592 219.841C149.004 222.529 145.586 224.268 141.889 224.779C140.691 224.951 139.477 224.985 138.272 224.882L136.372 224.73L49.667 217.727C47.1544 217.531 44.7205 216.759 42.5534 215.473C41.5053 213.27 40.9638 210.86 40.9688 208.42V206.767L120.628 213.227L122.528 213.383C123.734 213.483 124.947 213.448 126.146 213.281C129.842 212.768 133.258 211.028 135.846 208.34C138.435 205.652 140.045 202.173 140.419 198.461L146.119 141.404L163.249 138.899Z" fill="#CA9F14"/>
<path d="M146.111 141.362L140.411 198.419C140.037 202.131 138.427 205.611 135.839 208.298C133.25 210.986 129.834 212.726 126.138 213.239C124.939 213.407 123.726 213.441 122.52 213.341L120.62 213.186L40.9609 206.726V170.888C40.9628 166.885 42.4065 163.016 45.0273 159.99C47.6486 156.964 51.2719 154.984 55.2337 154.411L146.111 141.362Z" fill="#D7E8F0"/>
<path d="M148.506 232.052C147.306 232.223 146.092 232.258 144.884 232.154L142.984 232.002L148.506 232.052Z" fill="#D7E8F0"/>
<path d="M141.938 224.79L150.435 242.901C151.24 244.619 151.598 246.512 151.477 248.405C151.356 250.298 150.759 252.13 149.742 253.732C148.724 255.333 147.32 256.652 145.657 257.565C143.995 258.479 142.129 258.959 140.232 258.96H134.152C133.917 258.96 133.683 259.006 133.466 259.095C133.248 259.185 133.051 259.316 132.884 259.483C132.717 259.649 132.585 259.847 132.495 260.064C132.405 260.281 132.358 260.515 132.358 260.75V269.581C132.358 270.368 132.045 271.123 131.489 271.68C130.932 272.236 130.177 272.549 129.39 272.549C128.603 272.549 127.848 272.236 127.292 271.68C126.735 271.123 126.423 270.368 126.423 269.581V260.746C126.423 260.51 126.377 260.277 126.287 260.06C126.197 259.842 126.065 259.644 125.898 259.478C125.731 259.312 125.533 259.18 125.316 259.09C125.098 259.001 124.865 258.955 124.629 258.956H57.5438C57.3086 258.956 57.0756 259.002 56.8583 259.091C56.6409 259.181 56.4433 259.313 56.2772 259.479C56.1108 259.646 55.9789 259.843 55.8893 260.06C55.7996 260.278 55.7536 260.511 55.754 260.746V269.577C55.7266 270.346 55.4017 271.075 54.8477 271.609C54.2936 272.144 53.5542 272.442 52.7843 272.442C52.0144 272.442 51.2749 272.144 50.7209 271.609C50.1672 271.075 49.8419 270.346 49.8146 269.577V260.746C49.815 260.511 49.769 260.278 49.6793 260.06C49.5896 259.843 49.4578 259.646 49.2913 259.479C49.1253 259.313 48.9277 259.181 48.7103 259.091C48.4929 259.002 48.26 258.956 48.0248 258.956H37.5976C36.9698 258.932 36.3759 258.664 35.9404 258.211C35.5049 257.758 35.2617 257.155 35.2617 256.526C35.2617 255.898 35.5049 255.294 35.9404 254.841C36.3759 254.388 36.9698 254.121 37.5976 254.096H138.039C139.305 254.094 140.551 253.774 141.661 253.165C142.771 252.556 143.71 251.677 144.391 250.61C145.073 249.542 145.475 248.321 145.56 247.057C145.645 245.794 145.411 244.529 144.879 243.38L136.242 224.76" fill="#2E2E2E"/>
<path d="M138.271 224.893L49.666 217.73C45.4985 217.394 41.6107 215.501 38.7759 212.429C35.9411 209.356 34.3668 205.328 34.3672 201.147V163.626C34.3683 159.623 35.812 155.755 38.4332 152.731C41.0548 149.706 44.6781 147.727 48.64 147.157L157.069 131.577L167.759 116.776C168.045 116.473 168.39 116.233 168.773 116.069C169.156 115.905 169.569 115.822 169.985 115.825C170.402 115.827 170.813 115.915 171.195 116.083C171.576 116.252 171.918 116.496 172.201 116.802C172.687 117.336 172.968 118.024 172.993 118.746C173.018 119.467 172.786 120.174 172.338 120.739L163.544 135.859L156.169 209.959C155.736 214.297 153.618 218.291 150.271 221.084C146.924 223.876 142.616 225.245 138.271 224.893Z" stroke="black" stroke-width="2.52424" stroke-miterlimit="10"/>
<path d="M138.659 270.386C138.662 272.087 138.196 273.757 137.312 275.211C136.428 276.665 135.16 277.846 133.647 278.626C132.135 279.406 130.437 279.753 128.74 279.63C127.043 279.507 125.413 278.918 124.029 277.928C122.645 276.938 121.561 275.586 120.896 274.02C120.231 272.454 120.011 270.734 120.26 269.051C120.509 267.368 121.217 265.786 122.307 264.48C123.397 263.173 124.827 262.193 126.438 261.646V269.581C126.438 270.368 126.75 271.122 127.307 271.679C127.863 272.236 128.619 272.548 129.406 272.548C130.193 272.548 130.948 272.236 131.504 271.679C132.061 271.122 132.373 270.368 132.373 269.581V261.642C134.205 262.257 135.798 263.432 136.925 265.001C138.053 266.57 138.659 268.454 138.659 270.386Z" stroke="black" stroke-width="2.52424" stroke-miterlimit="10"/>
<path d="M62.0416 270.386C62.0447 272.087 61.5788 273.756 60.6945 275.209C59.8103 276.662 58.5426 277.843 57.0302 278.622C55.5182 279.401 53.8203 279.748 52.124 279.624C50.4273 279.501 48.7979 278.912 47.4147 277.921C46.0315 276.931 44.9485 275.579 44.2842 274.013C43.6204 272.447 43.4011 270.727 43.6512 269.045C43.9012 267.363 44.6103 265.781 45.7009 264.476C46.7915 263.171 48.221 262.192 49.8322 261.646V269.581C49.8334 270.368 50.1469 271.123 50.704 271.679C51.261 272.236 52.0165 272.548 52.8038 272.548C53.5908 272.548 54.3459 272.236 54.9026 271.679C55.4589 271.122 55.7716 270.368 55.7716 269.581V261.642C57.6017 262.258 59.1916 263.434 60.3168 265.003C61.442 266.572 62.0454 268.455 62.0416 270.386Z" stroke="black" stroke-width="2.52424" stroke-miterlimit="10"/>
<path d="M141.938 224.79L150.435 242.901C151.24 244.619 151.598 246.512 151.477 248.405C151.356 250.298 150.759 252.13 149.742 253.732C148.724 255.333 147.32 256.652 145.657 257.565C143.995 258.479 142.129 258.959 140.232 258.96H134.152C133.917 258.96 133.683 259.006 133.466 259.095C133.248 259.185 133.051 259.316 132.884 259.483C132.717 259.649 132.585 259.847 132.495 260.064C132.405 260.281 132.358 260.515 132.358 260.75V269.581C132.358 270.368 132.045 271.123 131.489 271.68C130.932 272.236 130.177 272.549 129.39 272.549C128.603 272.549 127.848 272.236 127.292 271.68C126.735 271.123 126.423 270.368 126.423 269.581V260.746C126.423 260.51 126.377 260.277 126.287 260.06C126.197 259.842 126.065 259.644 125.898 259.478C125.731 259.312 125.533 259.18 125.316 259.09C125.098 259.001 124.865 258.955 124.629 258.956H57.5438C57.3086 258.956 57.0756 259.002 56.8583 259.091C56.6409 259.181 56.4433 259.313 56.2772 259.479C56.1108 259.646 55.9789 259.843 55.8893 260.06C55.7996 260.278 55.7536 260.511 55.754 260.746V269.577C55.7266 270.346 55.4017 271.075 54.8477 271.609C54.2936 272.144 53.5542 272.442 52.7843 272.442C52.0144 272.442 51.2749 272.144 50.7209 271.609C50.1672 271.075 49.8419 270.346 49.8146 269.577V260.746C49.815 260.511 49.769 260.278 49.6793 260.06C49.5896 259.843 49.4578 259.646 49.2913 259.479C49.1253 259.313 48.9277 259.181 48.7103 259.091C48.4929 259.002 48.26 258.956 48.0248 258.956H37.5976C36.9698 258.932 36.3759 258.664 35.9404 258.211C35.5049 257.758 35.2617 257.155 35.2617 256.526C35.2617 255.898 35.5049 255.294 35.9404 254.841C36.3759 254.388 36.9698 254.121 37.5976 254.096H138.039C139.305 254.094 140.551 253.774 141.661 253.165C142.771 252.556 143.71 251.677 144.391 250.61C145.073 249.542 145.475 248.321 145.56 247.057C145.645 245.794 145.411 244.529 144.879 243.38L136.242 224.76" stroke="black" stroke-width="2.52424" stroke-miterlimit="10"/>
<path d="M172.363 61.8016L171.482 64.15L171.242 64.7808L171.17 64.9898C171.071 65.2691 170.867 65.499 170.6 65.6304C170.334 65.7615 170.028 65.784 169.745 65.6928L163.046 63.6408L152.862 60.5096C152.673 60.451 152.499 60.3538 152.35 60.2242C152.201 60.0946 152.081 59.935 151.997 59.756C151.913 59.5774 151.868 59.3829 151.864 59.1853C151.859 58.988 151.897 58.7916 151.973 58.6096L155.697 49.786C155.837 49.4599 156.094 49.1977 156.417 49.0503C156.74 48.9028 157.106 48.8808 157.445 48.988L173.629 54.099C173.822 54.1575 174.001 54.2567 174.153 54.3893C174.305 54.5219 174.428 54.6857 174.512 54.8688C174.596 55.0524 174.641 55.2519 174.642 55.4537C174.644 55.6558 174.603 55.8557 174.522 56.0408" stroke="black" stroke-width="2.52424" stroke-miterlimit="10"/>
<path d="M169.011 57.0318L154.605 52.3692" stroke="black" stroke-width="2.52424" stroke-miterlimit="10"/>
<path d="M186.52 68.1613C186.52 68.1613 180.979 80.2111 175.61 83.0725C175.571 83.0922 175.537 83.1215 175.513 83.1583C175.489 83.1948 175.476 83.237 175.473 83.2807C175.471 83.3244 175.48 83.3677 175.5 83.4069C175.52 83.4456 175.55 83.4787 175.587 83.5019L200.762 100.119" stroke="black" stroke-width="2.52424" stroke-miterlimit="10"/>
<path d="M176.041 77.6244C176.041 77.6244 172.932 82.154 175.228 83.2636" stroke="black" stroke-width="2.52424" stroke-miterlimit="10"/>
<path d="M177.763 107.188C177.763 107.188 176.49 107.245 179.043 110.46C181.597 113.675 182.463 119.793 180.727 124.167C180.727 124.167 180.651 125.307 185.195 123.886C189.74 122.464 205.681 119.139 205.681 119.139C205.681 119.139 208.17 117.828 207.399 121.15C206.627 124.471 205.119 136.688 203.542 140.21C201.965 143.733 200.43 147.225 205.856 148.548C211.282 149.87 240.884 152.652 240.884 152.652C240.884 152.652 261.024 157.117 260.812 147.867C260.599 138.618 259.121 111.992 259.121 111.992C259.121 111.992 259.242 91.4374 260.599 79.285C260.599 79.285 264.14 48.41 253.611 45.5562C243.081 42.7024 239.505 45.7386 236.834 47.1788C234.162 48.619 210.614 60.9272 209.329 86.3188C209.329 86.3188 209.242 96.1304 207.254 97.5934C205.267 99.0564 182.011 107.101 177.763 107.188Z" fill="#2E2E2E"/>
<path d="M215.51 269.14L212.85 279.624H180.463C179.752 279.619 179.071 279.339 178.563 278.841C178.223 278.5 177.981 278.074 177.861 277.608C177.742 277.141 177.75 276.651 177.884 276.188C178.018 275.726 178.274 275.308 178.625 274.978C178.975 274.648 179.408 274.418 179.878 274.312L199.288 269.14C199.288 269.14 210.525 273.088 215.51 269.14Z" fill="#2E2E2E"/>
<path d="M253.147 153.232C252.9 153.232 252.642 153.255 252.387 153.255C251.374 159.799 250.247 166.321 249.006 172.821C234.497 169.572 214.452 175.333 214.452 175.333L214.874 177.613C211.568 177.792 210.553 176.572 210.553 176.572L209.824 176.12L211.644 160.057L211.294 158.157V158.096C211.078 156.979 210.873 155.85 210.675 154.733L210.603 154.323C210.314 152.594 210.044 150.857 209.805 149.128L210.044 149.162C210.128 149.162 210.207 149.193 210.302 149.2L210.508 149.235C210.686 149.254 210.861 149.284 211.036 149.307C211.416 149.356 211.906 149.428 212.453 149.512C212.67 149.512 212.898 149.565 213.137 149.607C221.376 150.751 242.838 153.544 253.147 153.232Z" fill="#CA9F14"/>
<path d="M231.447 206.091L231.398 206.289L215.51 269.14L212.85 279.624H180.462C179.751 279.619 179.071 279.339 178.562 278.842C178.223 278.5 177.981 278.074 177.861 277.607C177.742 277.14 177.75 276.651 177.884 276.188C178.018 275.725 178.274 275.307 178.624 274.976C178.975 274.646 179.408 274.415 179.877 274.309L199.288 269.14L209.821 176.12L211.641 160.057" stroke="black" stroke-width="2.52424" stroke-miterlimit="10"/>
<path d="M181.556 119.413C180.416 119.466 179.778 119.478 179.778 119.478C178.638 119.557 177.532 119.124 176.438 118.535C173.512 116.92 170.707 114.089 167.895 116.468C166.075 117.988 164.574 122.267 161.564 120.872C158.939 119.652 159.041 117.072 159.474 114.709C160.014 111.783 162.381 109.176 165.174 108.708C169.02 108.059 172.972 108.028 176.84 107.356C184.632 105.931 192.258 103.713 199.599 100.736C207.75 97.487 216.642 94.1392 222.661 87.4664C229.809 79.5662 234.35 69.2264 236.831 58.9436" stroke="black" stroke-width="2.52424" stroke-miterlimit="10"/>
<path d="M221.805 16.4584C221.805 16.4584 222.515 4.62905 233.558 1.85885C244.601 -0.91135 251.19 11.9175 251.688 20.1521C252.186 28.3867 251.688 34.0676 257.49 36.6592C257.49 36.6592 274.26 36.454 280.439 51.8592C280.439 51.8592 281.275 59.4098 280.933 64.27C280.591 69.1302 286.655 73.39 289.958 74.8872C293.26 76.3844 299.005 82.4872 297.444 92.4546C295.882 102.422 282.844 107.069 282.844 107.069C282.844 107.069 271.702 110.368 264.984 104.862C257.851 99.021 259.869 88.3392 259.869 88.3392C259.869 88.3392 263.719 53.5997 256.711 47.8921C252.854 44.7495 251.103 45.0345 248.378 43.3777C245.509 41.6334 244.483 41.0976 243.522 39.8702C241.652 37.4648 238.338 33.832 240.736 25.263C243.134 16.694 240.736 21.0147 238.456 19.8063C238.456 19.8063 235.66 15.4894 231.438 18.5408C227.216 21.5922 228.246 14.148 228.246 14.148L226.391 16.6408C226.391 16.6408 223.492 17.2222 221.805 16.4584Z" fill="#CA9F14"/>
<path d="M219.203 20.5484C219.1 15.027 221.16 8.82539 225.45 5.14699C226.033 4.64539 226.658 4.19661 227.32 3.80559C231.956 1.06579 238.397 1.31279 243.01 3.97659C245.463 5.43389 247.51 7.48551 248.961 9.94259L248.999 10.011C250.786 13.0901 251.714 16.593 251.685 20.1532C251.708 24.7816 251.735 31.063 254.706 34.9048C256.583 37.3368 259.08 36.6528 261.827 37.067C265.548 37.626 269.076 39.0799 272.11 41.304C276.207 44.3174 279.619 48.8128 280.561 53.8896C281.47 58.7764 279.695 64.2864 282.328 68.8046C284.259 72.1068 287.93 73.6154 291.038 75.542C297.278 79.456 298.562 87.0408 296.586 93.7136C294.526 100.671 289.685 104.946 282.841 107.078C282.841 107.078 259.715 112.778 259.43 92.509" stroke="black" stroke-width="2.52424" stroke-miterlimit="10"/>
<path d="M227.92 13.7992C227.681 15.4256 226.693 16.9266 224.933 17.375C222.95 17.8804 221.893 19.8108 221.339 21.7526C220.545 24.6015 220.75 27.6358 221.92 30.352C223.003 32.9056 224.937 35.824 228.205 36.2914C234.186 37.1426 237.162 34.6232 237.162 34.6232" stroke="black" stroke-width="2.52424" stroke-miterlimit="10"/>
<path d="M232.905 22.4894C233.474 22.4894 233.935 22.0285 233.935 21.4596C233.935 20.8908 233.474 20.4298 232.905 20.4298C232.336 20.4298 231.875 20.8908 231.875 21.4596C231.875 22.0285 232.336 22.4894 232.905 22.4894Z" fill="black"/>
<path d="M223.87 21.8142C224.439 21.8142 224.899 21.3528 224.899 20.7844C224.899 20.2155 224.439 19.7546 223.87 19.7546C223.301 19.7546 222.84 20.2155 222.84 20.7844C222.84 21.3528 223.301 21.8142 223.87 21.8142Z" fill="black"/>
<path d="M227.921 13.7992C227.694 14.7766 227.729 15.7961 228.023 16.7556C228.068 16.911 228.127 17.0623 228.198 17.2078C228.912 18.8836 230.573 20.2212 233.518 20.054C239.913 19.7006 242.193 19.294 241.673 22.2314C241.457 23.2707 241.147 24.2884 240.746 25.2714C240.043 27.1372 239.552 30.3406 240.274 33.829C241.107 37.9064 243.083 42.0712 249.744 44.3892" stroke="black" stroke-width="2.52424" stroke-miterlimit="10"/>
<path d="M228.481 21.7108C228.481 21.7108 227.402 25.6552 227.512 26.2366C227.622 26.818 229.001 26.3658 229.001 26.3658" stroke="black" stroke-width="2.52424" stroke-miterlimit="10"/>
<path d="M229.238 29.9804C231.302 31.0938 233.696 30.3908 234.63 28.5288" stroke="black" stroke-width="2.52424" stroke-miterlimit="10"/>
<path d="M237.96 25.5541C239.735 23.6739 239.612 20.6757 237.687 18.8578C235.761 17.0395 232.761 17.09 230.986 18.9699C229.211 20.8501 229.333 23.8483 231.259 25.6662C233.185 27.4845 236.185 27.434 237.96 25.5541Z" stroke="black" stroke-width="2.52424" stroke-miterlimit="10"/>
<path d="M225.979 24.454C227.754 22.5738 227.632 19.576 225.706 17.7577C223.78 15.9397 220.78 15.9899 219.005 17.8701C217.23 19.7504 217.353 22.7482 219.278 24.5665C221.204 26.3844 224.204 26.3343 225.979 24.454Z" stroke="black" stroke-width="2.52424" stroke-miterlimit="10"/>
<path d="M222.399 17.8808C222.502 17.8751 222.604 17.8751 222.707 17.8808C223.584 17.9617 224.395 18.3812 224.968 19.0504C225.541 19.7192 225.832 20.5849 225.777 21.4642C225.729 22.2713 225.372 23.0286 224.781 23.5804C224.19 24.1318 223.409 24.4354 222.601 24.4282C222.498 24.4282 222.395 24.4282 222.293 24.4282C221.416 24.345 220.607 23.9247 220.034 23.2563C219.461 22.5878 219.17 21.7234 219.222 20.8448C219.271 20.0377 219.628 19.28 220.219 18.7286C220.81 18.1768 221.591 17.8732 222.399 17.8808ZM222.399 17.1778C221.413 17.1725 220.463 17.5445 219.741 18.2167C219.021 18.8889 218.583 19.8116 218.519 20.7954C218.454 21.8575 218.805 22.9032 219.498 23.7115C220.189 24.5201 221.169 25.0275 222.228 25.1274C222.354 25.1274 222.479 25.1464 222.608 25.1464C223.595 25.1502 224.545 24.7778 225.266 24.1048C225.987 23.4318 226.424 22.5092 226.488 21.525C226.552 20.4629 226.201 19.4175 225.509 18.6092C224.817 17.8014 223.838 17.2933 222.779 17.193C222.654 17.193 222.528 17.193 222.399 17.193V17.1778Z" fill="white"/>
<path d="M229.738 21.8256L227.223 21.5938" stroke="black" stroke-width="2.52424" stroke-miterlimit="10"/>
<path d="M234.365 18.8798H234.68C235.584 18.9649 236.419 19.3974 237.01 20.0867C237.6 20.7756 237.9 21.6675 237.846 22.5734C237.792 23.4026 237.422 24.1797 236.813 24.7447C236.203 25.3102 235.401 25.621 234.57 25.6134C234.464 25.6134 234.361 25.6134 234.255 25.6134C233.351 25.5283 232.516 25.0955 231.925 24.4061C231.335 23.7172 231.035 22.8257 231.089 21.9198C231.143 21.0903 231.512 20.3124 232.122 19.747C232.731 19.1815 233.534 18.8711 234.365 18.8798ZM234.365 18.1768C233.353 18.1696 232.377 18.55 231.635 19.2393C230.894 19.9286 230.445 20.8756 230.379 21.8856C230.313 22.9735 230.672 24.0448 231.381 24.8732C232.09 25.7012 233.094 26.2214 234.179 26.324C234.308 26.324 234.433 26.343 234.559 26.343C235.57 26.3468 236.544 25.9649 237.283 25.2748C238.021 24.5851 238.469 23.6389 238.534 22.6304C238.605 21.5406 238.248 20.4663 237.538 19.6368C236.828 18.8072 235.821 18.2889 234.734 18.192C234.604 18.192 234.479 18.192 234.354 18.192L234.365 18.1768Z" fill="white"/>
<path d="M225.484 23.9874C227.006 22.3743 226.901 19.8017 225.248 18.2418C223.596 16.6815 221.021 16.7244 219.498 18.3375C217.976 19.9506 218.081 22.5229 219.734 24.0831C221.387 25.6434 223.961 25.6005 225.484 23.9874Z" fill="#CA9F14"/>
<path d="M237.481 25.0981C239.011 23.4774 238.905 20.893 237.245 19.3255C235.585 17.758 232.998 17.8014 231.468 19.4221C229.939 21.0428 230.044 23.6272 231.704 25.1947C233.365 26.7622 235.951 26.7188 237.481 25.0981Z" fill="#CA9F14"/>
<path d="M232.903 49.1198L231.504 43.0702L229.984 36.5456" stroke="black" stroke-width="2.52424" stroke-miterlimit="10"/>
<path d="M300.404 252.744L278.219 278.679C277.78 279.195 277.162 279.528 276.488 279.608C275.815 279.689 275.136 279.513 274.587 279.116L273.979 278.671C273.469 278.299 273.105 277.761 272.95 277.148C272.795 276.536 272.859 275.889 273.131 275.319L281.848 257.178C281.848 257.178 295.718 257.577 295.604 244.722C298.747 251.216 300.404 252.744 300.404 252.744Z" fill="#2E2E2E"/>
<path d="M262.912 236.239L262.757 236.083L256.924 230.539L256.642 230.281L232.277 207.101V207.078L232.243 207.047L231.418 206.287L224.012 199.246C219.956 195.384 217.226 190.337 216.214 184.829L214.873 177.639L214.447 175.359L211.643 160.095L211.293 158.195V158.134C211.077 157.017 210.871 155.888 210.674 154.771L210.602 154.36" stroke="black" stroke-width="2.52424" stroke-miterlimit="10"/>
<path d="M209.793 149.14C210.032 150.869 210.302 152.606 210.591 154.335L210.663 154.745C210.861 155.862 211.066 156.991 211.283 158.108V158.169" stroke="black" stroke-width="2.52424" stroke-linejoin="round"/>
<path d="M232.219 207.063L232.249 207.094L232.272 207.117" stroke="black" stroke-width="2.52424" stroke-linejoin="round"/>
<path d="M256.638 230.281L256.919 230.539C259.027 232.515 260.971 234.364 262.752 236.084L262.904 236.239C286.27 258.815 281.843 257.177 281.843 257.177L273.122 275.319C272.851 275.889 272.788 276.536 272.944 277.148C273.099 277.76 273.463 278.299 273.973 278.67L274.581 279.115C275.131 279.513 275.81 279.689 276.483 279.608C277.157 279.527 277.775 279.195 278.214 278.678L300.395 252.743C300.395 252.743 298.742 251.223 295.599 244.721C288.049 229.073 271.925 200.196 249.729 185.148C248.903 184.594 248.26 183.807 247.88 182.888C247.501 181.968 247.403 180.956 247.598 179.98C248.023 177.921 248.426 175.861 248.821 173.794C248.882 173.475 248.943 173.152 248.996 172.833C250.235 166.327 251.362 159.805 252.378 153.266" stroke="black" stroke-width="2.52424" stroke-linejoin="round"/>
<path d="M208.34 97.1066C208.682 92.1666 209.1 87.694 209.552 83.8066C209.613 83.2176 209.685 82.6362 209.746 82.0662C210.673 73.596 215.267 65.9504 220.918 59.7526C226.504 53.627 233.614 47.6724 241.681 45.2594C244.28 44.4405 247.015 44.1449 249.729 44.3892C251.592 44.6134 253.372 45.2868 254.917 46.3519C256.461 47.4171 257.724 48.842 258.595 50.5034C259.676 52.6276 260.366 54.9289 260.632 57.2978C260.632 57.3282 260.632 57.3586 260.632 57.3928C261.107 61.1928 260.837 65.179 260.879 68.9524C260.951 76.826 260.278 84.6844 259.408 92.5124" stroke="black" stroke-width="2.52424" stroke-linejoin="round"/>
<path d="M207.664 116.799V116.786" stroke="black" stroke-width="2.52424" stroke-linejoin="round"/>
<path d="M176.852 107.34C180.45 111.55 182.692 117.695 181.15 123.19C180.77 124.493 179.394 126.26 178.144 124.653C177.828 124.198 177.616 123.679 177.524 123.133C177.171 121.586 176.707 120.066 176.438 118.497" stroke="black" stroke-width="2.52424" stroke-miterlimit="10"/>
<path d="M179.617 125.276C209.01 117.509 250.632 114.879 259.596 73.9C260.769 68.4436 261.12 62.8424 260.637 57.2826" stroke="black" stroke-width="2.52424" stroke-miterlimit="10"/>
<path d="M207.58 118.649C206.999 128.453 203.928 139.169 202.233 144.489C202.101 144.902 202.059 145.338 202.112 145.768C202.165 146.198 202.31 146.612 202.538 146.98C202.766 147.349 203.071 147.664 203.432 147.903C203.794 148.142 204.203 148.299 204.631 148.365C206.018 148.582 207.774 148.84 209.792 149.125L210.031 149.159C210.115 149.159 210.194 149.19 210.289 149.197L210.495 149.232C210.673 149.251 210.848 149.281 211.023 149.304C211.479 149.376 211.954 149.437 212.44 149.509C212.657 149.509 212.885 149.562 213.124 149.604C224.904 151.276 242.453 153.461 252.382 153.244C252.64 153.244 252.899 153.244 253.142 153.222L253.902 153.191L254.639 153.149C257.352 152.952 259.199 152.488 259.727 151.671C263.147 146.499 256.801 116.776 259.841 88.3252" stroke="black" stroke-width="2.52424" stroke-miterlimit="10"/>
<path d="M286.63 279.629H8.38281" stroke="black" stroke-width="2.52424" stroke-linejoin="round"/>
<path d="M21.2766 192.499C21.2766 192.499 -16.4004 236.689 21.2766 279.169" stroke="#CCDDE2" stroke-width="2.52424" stroke-miterlimit="10"/>
</svg>
